<svg xmlns="http://www.w3.org/2000/svg" xmlns:xlink="http://www.w3.org/1999/xlink" width="500" zoomAndPan="magnify" viewBox="0 0 375 374.999991" height="500" preserveAspectRatio="xMidYMid meet" version="1.0"><defs><g/></defs><g fill="#000000" fill-opacity="1"><g transform="translate(45.257813, 196.124987)"><g><path d="M 1.921875 -26.40625 L 10.109375 -26.40625 C 12.585938 -26.40625 14.5625 -25.875 16.03125 -24.8125 C 17.5 -23.757812 18.234375 -22.050781 18.234375 -19.6875 C 18.234375 -17.039062 17.132812 -15.148438 14.9375 -14.015625 C 18.695312 -13.359375 20.578125 -11.140625 20.578125 -7.359375 C 20.578125 -5.140625 19.804688 -3.359375 18.265625 -2.015625 C 16.734375 -0.671875 14.625 0 11.9375 0 L 1.921875 0 Z M 7.9375 -16.0625 L 8.421875 -16.0625 C 9.765625 -16.0625 10.765625 -16.296875 11.421875 -16.765625 C 12.085938 -17.234375 12.421875 -18.003906 12.421875 -19.078125 C 12.421875 -20.867188 11.085938 -21.765625 8.421875 -21.765625 L 7.9375 -21.765625 Z M 7.9375 -4.640625 L 9.828125 -4.640625 C 12.765625 -4.640625 14.234375 -5.617188 14.234375 -7.578125 C 14.234375 -8.753906 13.863281 -9.597656 13.125 -10.109375 C 12.394531 -10.617188 11.296875 -10.875 9.828125 -10.875 L 7.9375 -10.875 Z M 7.9375 -4.640625 "/></g></g></g><g fill="#000000" fill-opacity="1"><g transform="translate(66.564571, 196.124987)"><g><path d="M 1.921875 0 L 1.921875 -16.421875 L 7.578125 -16.421875 L 7.578125 -14.046875 L 7.640625 -14.046875 C 7.691406 -14.128906 7.765625 -14.234375 7.859375 -14.359375 C 7.953125 -14.492188 8.15625 -14.71875 8.46875 -15.03125 C 8.789062 -15.351562 9.132812 -15.640625 9.5 -15.890625 C 9.863281 -16.148438 10.332031 -16.378906 10.90625 -16.578125 C 11.488281 -16.785156 12.078125 -16.890625 12.671875 -16.890625 C 13.285156 -16.890625 13.890625 -16.804688 14.484375 -16.640625 C 15.085938 -16.472656 15.53125 -16.300781 15.8125 -16.125 L 16.25 -15.875 L 13.890625 -11.078125 C 13.179688 -11.671875 12.195312 -11.96875 10.9375 -11.96875 C 10.257812 -11.96875 9.675781 -11.816406 9.1875 -11.515625 C 8.695312 -11.222656 8.347656 -10.863281 8.140625 -10.4375 C 7.941406 -10.007812 7.796875 -9.644531 7.703125 -9.34375 C 7.617188 -9.039062 7.578125 -8.804688 7.578125 -8.640625 L 7.578125 0 Z M 1.921875 0 "/></g></g></g><g fill="#000000" fill-opacity="1"><g transform="translate(82.496657, 196.124987)"><g><path d="M 3.03125 -2.03125 C 1.5 -3.707031 0.734375 -5.757812 0.734375 -8.1875 C 0.734375 -10.625 1.5 -12.679688 3.03125 -14.359375 C 4.570312 -16.046875 6.523438 -16.890625 8.890625 -16.890625 C 11.066406 -16.890625 12.859375 -16.207031 14.265625 -14.84375 L 14.265625 -16.421875 L 19.9375 -16.421875 L 19.9375 0 L 14.34375 0 L 14.34375 -1.859375 L 14.265625 -1.859375 C 12.859375 -0.296875 11.066406 0.484375 8.890625 0.484375 C 6.523438 0.484375 4.570312 -0.351562 3.03125 -2.03125 Z M 7.84375 -10.96875 C 7.113281 -10.25 6.75 -9.320312 6.75 -8.1875 C 6.75 -7.0625 7.097656 -6.140625 7.796875 -5.421875 C 8.503906 -4.710938 9.4375 -4.359375 10.59375 -4.359375 C 11.695312 -4.359375 12.609375 -4.71875 13.328125 -5.4375 C 14.046875 -6.164062 14.40625 -7.082031 14.40625 -8.1875 C 14.40625 -9.320312 14.035156 -10.25 13.296875 -10.96875 C 12.554688 -11.695312 11.65625 -12.0625 10.59375 -12.0625 C 9.5 -12.0625 8.582031 -11.695312 7.84375 -10.96875 Z M 7.84375 -10.96875 "/></g></g></g><g fill="#000000" fill-opacity="1"><g transform="translate(104.347284, 196.124987)"><g><path d="M 1.921875 0 L 1.921875 -16.421875 L 7.578125 -16.421875 L 7.578125 -14.6875 L 7.640625 -14.6875 C 9.117188 -16.15625 10.691406 -16.890625 12.359375 -16.890625 C 13.160156 -16.890625 13.960938 -16.78125 14.765625 -16.5625 C 15.566406 -16.351562 16.332031 -16.023438 17.0625 -15.578125 C 17.800781 -15.128906 18.398438 -14.492188 18.859375 -13.671875 C 19.316406 -12.859375 19.546875 -11.90625 19.546875 -10.8125 L 19.546875 0 L 13.890625 0 L 13.890625 -9.28125 C 13.890625 -10.132812 13.613281 -10.878906 13.0625 -11.515625 C 12.519531 -12.160156 11.8125 -12.484375 10.9375 -12.484375 C 10.082031 -12.484375 9.304688 -12.148438 8.609375 -11.484375 C 7.921875 -10.828125 7.578125 -10.09375 7.578125 -9.28125 L 7.578125 0 Z M 1.921875 0 "/></g></g></g><g fill="#000000" fill-opacity="1"><g transform="translate(125.494088, 196.124987)"><g><path d="M 3.03125 -2.03125 C 1.5 -3.707031 0.734375 -5.757812 0.734375 -8.1875 C 0.734375 -10.625 1.5 -12.679688 3.03125 -14.359375 C 4.570312 -16.046875 6.523438 -16.890625 8.890625 -16.890625 C 11.066406 -16.890625 12.859375 -16.207031 14.265625 -14.84375 L 14.265625 -27.515625 L 19.9375 -27.515625 L 19.9375 0 L 14.34375 0 L 14.34375 -1.859375 L 14.265625 -1.859375 C 12.859375 -0.296875 11.066406 0.484375 8.890625 0.484375 C 6.523438 0.484375 4.570312 -0.351562 3.03125 -2.03125 Z M 7.84375 -10.96875 C 7.113281 -10.25 6.75 -9.320312 6.75 -8.1875 C 6.75 -7.0625 7.097656 -6.140625 7.796875 -5.421875 C 8.503906 -4.710938 9.4375 -4.359375 10.59375 -4.359375 C 11.695312 -4.359375 12.609375 -4.71875 13.328125 -5.4375 C 14.046875 -6.164062 14.40625 -7.082031 14.40625 -8.1875 C 14.40625 -9.320312 14.035156 -10.25 13.296875 -10.96875 C 12.554688 -11.695312 11.65625 -12.0625 10.59375 -12.0625 C 9.5 -12.0625 8.582031 -11.695312 7.84375 -10.96875 Z M 7.84375 -10.96875 "/></g></g></g><g fill="#000000" fill-opacity="1"><g transform="translate(147.344714, 196.124987)"><g/></g></g><g fill="#000000" fill-opacity="1"><g transform="translate(156.07857, 196.124987)"><g><path d="M 25.796875 -14.78125 L 25.796875 -9.0625 C 25.109375 -5.925781 23.613281 -3.550781 21.3125 -1.9375 C 19.007812 -0.320312 16.4375 0.484375 13.59375 0.484375 C 10.03125 0.484375 6.992188 -0.847656 4.484375 -3.515625 C 1.984375 -6.179688 0.734375 -9.40625 0.734375 -13.1875 C 0.734375 -17.019531 1.957031 -20.257812 4.40625 -22.90625 C 6.863281 -25.550781 9.925781 -26.875 13.59375 -26.875 C 17.882812 -26.875 21.28125 -25.375 23.78125 -22.375 L 19.84375 -18.046875 C 18.4375 -20.304688 16.472656 -21.4375 13.953125 -21.4375 C 12.097656 -21.4375 10.515625 -20.628906 9.203125 -19.015625 C 7.890625 -17.410156 7.234375 -15.46875 7.234375 -13.1875 C 7.234375 -10.945312 7.890625 -9.03125 9.203125 -7.4375 C 10.515625 -5.851562 12.097656 -5.0625 13.953125 -5.0625 C 15.484375 -5.0625 16.820312 -5.523438 17.96875 -6.453125 C 19.113281 -7.378906 19.6875 -8.609375 19.6875 -10.140625 L 13.59375 -10.140625 L 13.59375 -14.78125 Z M 25.796875 -14.78125 "/></g></g></g><g fill="#000000" fill-opacity="1"><g transform="translate(182.600045, 196.124987)"><g><path d="M 7.265625 -16.421875 L 7.265625 -8.609375 C 7.265625 -6.984375 7.507812 -5.828125 8 -5.140625 C 8.488281 -4.460938 9.316406 -4.125 10.484375 -4.125 C 11.660156 -4.125 12.492188 -4.460938 12.984375 -5.140625 C 13.484375 -5.828125 13.734375 -6.984375 13.734375 -8.609375 L 13.734375 -16.421875 L 19.390625 -16.421875 L 19.390625 -7.234375 C 19.390625 -4.503906 18.679688 -2.535156 17.265625 -1.328125 C 15.847656 -0.117188 13.59375 0.484375 10.5 0.484375 C 7.40625 0.484375 5.144531 -0.117188 3.71875 -1.328125 C 2.300781 -2.535156 1.59375 -4.503906 1.59375 -7.234375 L 1.59375 -16.421875 Z M 7.265625 -16.421875 "/></g></g></g><g fill="#000000" fill-opacity="1"><g transform="translate(203.586883, 196.124987)"><g><path d="M 2.453125 -25.5625 C 3.117188 -26.226562 3.910156 -26.5625 4.828125 -26.5625 C 5.742188 -26.5625 6.53125 -26.226562 7.1875 -25.5625 C 7.851562 -24.90625 8.1875 -24.117188 8.1875 -23.203125 C 8.1875 -22.285156 7.851562 -21.492188 7.1875 -20.828125 C 6.53125 -20.171875 5.742188 -19.84375 4.828125 -19.84375 C 3.910156 -19.84375 3.117188 -20.171875 2.453125 -20.828125 C 1.796875 -21.492188 1.46875 -22.285156 1.46875 -23.203125 C 1.46875 -24.117188 1.796875 -24.90625 2.453125 -25.5625 Z M 1.921875 -16.421875 L 1.921875 0 L 7.578125 0 L 7.578125 -16.421875 Z M 1.921875 -16.421875 "/></g></g></g><g fill="#000000" fill-opacity="1"><g transform="translate(213.248511, 196.124987)"><g><path d="M 3.03125 -2.03125 C 1.5 -3.707031 0.734375 -5.757812 0.734375 -8.1875 C 0.734375 -10.625 1.5 -12.679688 3.03125 -14.359375 C 4.570312 -16.046875 6.523438 -16.890625 8.890625 -16.890625 C 11.066406 -16.890625 12.859375 -16.207031 14.265625 -14.84375 L 14.265625 -27.515625 L 19.9375 -27.515625 L 19.9375 0 L 14.34375 0 L 14.34375 -1.859375 L 14.265625 -1.859375 C 12.859375 -0.296875 11.066406 0.484375 8.890625 0.484375 C 6.523438 0.484375 4.570312 -0.351562 3.03125 -2.03125 Z M 7.84375 -10.96875 C 7.113281 -10.25 6.75 -9.320312 6.75 -8.1875 C 6.75 -7.0625 7.097656 -6.140625 7.796875 -5.421875 C 8.503906 -4.710938 9.4375 -4.359375 10.59375 -4.359375 C 11.695312 -4.359375 12.609375 -4.71875 13.328125 -5.4375 C 14.046875 -6.164062 14.40625 -7.082031 14.40625 -8.1875 C 14.40625 -9.320312 14.035156 -10.25 13.296875 -10.96875 C 12.554688 -11.695312 11.65625 -12.0625 10.59375 -12.0625 C 9.5 -12.0625 8.582031 -11.695312 7.84375 -10.96875 Z M 7.84375 -10.96875 "/></g></g></g><g fill="#000000" fill-opacity="1"><g transform="translate(235.099138, 196.124987)"><g><path d="M 18.53125 -7.421875 L 6.625 -7.421875 C 6.625 -6.273438 6.992188 -5.421875 7.734375 -4.859375 C 8.484375 -4.304688 9.296875 -4.03125 10.171875 -4.03125 C 11.085938 -4.03125 11.8125 -4.148438 12.34375 -4.390625 C 12.882812 -4.640625 13.492188 -5.128906 14.171875 -5.859375 L 18.265625 -3.8125 C 16.566406 -0.945312 13.734375 0.484375 9.765625 0.484375 C 7.285156 0.484375 5.160156 -0.363281 3.390625 -2.0625 C 1.617188 -3.757812 0.734375 -5.800781 0.734375 -8.1875 C 0.734375 -10.582031 1.617188 -12.628906 3.390625 -14.328125 C 5.160156 -16.035156 7.285156 -16.890625 9.765625 -16.890625 C 12.359375 -16.890625 14.472656 -16.140625 16.109375 -14.640625 C 17.742188 -13.140625 18.5625 -10.988281 18.5625 -8.1875 C 18.5625 -7.800781 18.550781 -7.546875 18.53125 -7.421875 Z M 6.78125 -10.5625 L 13.03125 -10.5625 C 12.894531 -11.414062 12.554688 -12.070312 12.015625 -12.53125 C 11.472656 -12.988281 10.773438 -13.21875 9.921875 -13.21875 C 8.984375 -13.21875 8.234375 -12.972656 7.671875 -12.484375 C 7.117188 -11.992188 6.820312 -11.351562 6.78125 -10.5625 Z M 6.78125 -10.5625 "/></g></g></g><g fill="#000000" fill-opacity="1"><g transform="translate(254.390384, 196.124987)"><g><path d="M 1.921875 0 L 1.921875 -27.515625 L 7.578125 -27.515625 L 7.578125 0 Z M 1.921875 0 "/></g></g></g><g fill="#000000" fill-opacity="1"><g transform="translate(263.892047, 196.124987)"><g><path d="M 2.453125 -25.5625 C 3.117188 -26.226562 3.910156 -26.5625 4.828125 -26.5625 C 5.742188 -26.5625 6.53125 -26.226562 7.1875 -25.5625 C 7.851562 -24.90625 8.1875 -24.117188 8.1875 -23.203125 C 8.1875 -22.285156 7.851562 -21.492188 7.1875 -20.828125 C 6.53125 -20.171875 5.742188 -19.84375 4.828125 -19.84375 C 3.910156 -19.84375 3.117188 -20.171875 2.453125 -20.828125 C 1.796875 -21.492188 1.46875 -22.285156 1.46875 -23.203125 C 1.46875 -24.117188 1.796875 -24.90625 2.453125 -25.5625 Z M 1.921875 -16.421875 L 1.921875 0 L 7.578125 0 L 7.578125 -16.421875 Z M 1.921875 -16.421875 "/></g></g></g><g fill="#000000" fill-opacity="1"><g transform="translate(273.553675, 196.124987)"><g><path d="M 1.921875 0 L 1.921875 -16.421875 L 7.578125 -16.421875 L 7.578125 -14.6875 L 7.640625 -14.6875 C 9.117188 -16.15625 10.691406 -16.890625 12.359375 -16.890625 C 13.160156 -16.890625 13.960938 -16.78125 14.765625 -16.5625 C 15.566406 -16.351562 16.332031 -16.023438 17.0625 -15.578125 C 17.800781 -15.128906 18.398438 -14.492188 18.859375 -13.671875 C 19.316406 -12.859375 19.546875 -11.90625 19.546875 -10.8125 L 19.546875 0 L 13.890625 0 L 13.890625 -9.28125 C 13.890625 -10.132812 13.613281 -10.878906 13.0625 -11.515625 C 12.519531 -12.160156 11.8125 -12.484375 10.9375 -12.484375 C 10.082031 -12.484375 9.304688 -12.148438 8.609375 -11.484375 C 7.921875 -10.828125 7.578125 -10.09375 7.578125 -9.28125 L 7.578125 0 Z M 1.921875 0 "/></g></g></g><g fill="#000000" fill-opacity="1"><g transform="translate(294.700479, 196.124987)"><g><path d="M 18.53125 -7.421875 L 6.625 -7.421875 C 6.625 -6.273438 6.992188 -5.421875 7.734375 -4.859375 C 8.484375 -4.304688 9.296875 -4.03125 10.171875 -4.03125 C 11.085938 -4.03125 11.8125 -4.148438 12.34375 -4.390625 C 12.882812 -4.640625 13.492188 -5.128906 14.171875 -5.859375 L 18.265625 -3.8125 C 16.566406 -0.945312 13.734375 0.484375 9.765625 0.484375 C 7.285156 0.484375 5.160156 -0.363281 3.390625 -2.0625 C 1.617188 -3.757812 0.734375 -5.800781 0.734375 -8.1875 C 0.734375 -10.582031 1.617188 -12.628906 3.390625 -14.328125 C 5.160156 -16.035156 7.285156 -16.890625 9.765625 -16.890625 C 12.359375 -16.890625 14.472656 -16.140625 16.109375 -14.640625 C 17.742188 -13.140625 18.5625 -10.988281 18.5625 -8.1875 C 18.5625 -7.800781 18.550781 -7.546875 18.53125 -7.421875 Z M 6.78125 -10.5625 L 13.03125 -10.5625 C 12.894531 -11.414062 12.554688 -12.070312 12.015625 -12.53125 C 11.472656 -12.988281 10.773438 -13.21875 9.921875 -13.21875 C 8.984375 -13.21875 8.234375 -12.972656 7.671875 -12.484375 C 7.117188 -11.992188 6.820312 -11.351562 6.78125 -10.5625 Z M 6.78125 -10.5625 "/></g></g></g><g fill="#000000" fill-opacity="1"><g transform="translate(313.991737, 196.124987)"><g><path d="M 9.0625 -16.890625 C 10 -16.890625 10.925781 -16.78125 11.84375 -16.5625 C 12.757812 -16.351562 13.441406 -16.144531 13.890625 -15.9375 L 14.5625 -15.609375 L 12.703125 -11.90625 C 11.421875 -12.582031 10.207031 -12.921875 9.0625 -12.921875 C 8.414062 -12.921875 7.957031 -12.851562 7.6875 -12.71875 C 7.425781 -12.582031 7.296875 -12.320312 7.296875 -11.9375 C 7.296875 -11.851562 7.304688 -11.765625 7.328125 -11.671875 C 7.347656 -11.585938 7.390625 -11.507812 7.453125 -11.4375 C 7.515625 -11.363281 7.570312 -11.300781 7.625 -11.25 C 7.6875 -11.195312 7.78125 -11.132812 7.90625 -11.0625 C 8.03125 -11 8.128906 -10.953125 8.203125 -10.921875 C 8.273438 -10.890625 8.394531 -10.84375 8.5625 -10.78125 C 8.738281 -10.71875 8.867188 -10.671875 8.953125 -10.640625 C 9.046875 -10.609375 9.191406 -10.5625 9.390625 -10.5 C 9.597656 -10.4375 9.753906 -10.394531 9.859375 -10.375 C 10.515625 -10.175781 11.085938 -9.957031 11.578125 -9.71875 C 12.066406 -9.488281 12.582031 -9.171875 13.125 -8.765625 C 13.675781 -8.359375 14.097656 -7.84375 14.390625 -7.21875 C 14.691406 -6.601562 14.84375 -5.90625 14.84375 -5.125 C 14.84375 -1.382812 12.253906 0.484375 7.078125 0.484375 C 5.898438 0.484375 4.78125 0.300781 3.71875 -0.0625 C 2.664062 -0.425781 1.90625 -0.789062 1.4375 -1.15625 L 0.734375 -1.734375 L 3.046875 -5.59375 C 3.210938 -5.445312 3.429688 -5.269531 3.703125 -5.0625 C 3.984375 -4.863281 4.484375 -4.585938 5.203125 -4.234375 C 5.929688 -3.890625 6.566406 -3.71875 7.109375 -3.71875 C 8.273438 -3.71875 8.859375 -4.109375 8.859375 -4.890625 C 8.859375 -5.253906 8.707031 -5.535156 8.40625 -5.734375 C 8.113281 -5.941406 7.609375 -6.171875 6.890625 -6.421875 C 6.179688 -6.679688 5.625 -6.921875 5.21875 -7.140625 C 4.195312 -7.671875 3.382812 -8.269531 2.78125 -8.9375 C 2.1875 -9.613281 1.890625 -10.503906 1.890625 -11.609375 C 1.890625 -13.273438 2.535156 -14.570312 3.828125 -15.5 C 5.117188 -16.425781 6.863281 -16.890625 9.0625 -16.890625 Z M 9.0625 -16.890625 "/></g></g></g></svg>