<svg xmlns="http://www.w3.org/2000/svg" xmlns:xlink="http://www.w3.org/1999/xlink" width="500" zoomAndPan="magnify" viewBox="0 0 375 374.999991" height="500" preserveAspectRatio="xMidYMid meet" version="1.0"><defs><clipPath id="0a2bb99977"><path d="M 37.5 37.5 L 150 37.5 L 150 150 L 37.5 150 Z M 37.5 37.5 " clip-rule="nonzero"/></clipPath><clipPath id="a9bfac18d2"><path d="M 225 37.5 L 337.5 37.5 L 337.5 150 L 225 150 Z M 225 37.5 " clip-rule="nonzero"/></clipPath><clipPath id="984e5a7bcf"><path d="M 37.5 225 L 150 225 L 150 337.5 L 37.5 337.5 Z M 37.5 225 " clip-rule="nonzero"/></clipPath><clipPath id="5dd7251c74"><path d="M 225 225 L 337.5 225 L 337.5 337.5 L 225 337.5 Z M 225 225 " clip-rule="nonzero"/></clipPath></defs><g clip-path="url(#0a2bb99977)"><path fill="#073643" d="M 37.5 37.5 L 150 37.5 L 150 150 L 37.5 150 Z M 37.5 37.5 " fill-opacity="1" fill-rule="nonzero"/></g><g clip-path="url(#a9bfac18d2)"><path fill="#49a84e" d="M 225 37.5 L 337.5 37.5 L 337.5 150 L 225 150 Z M 225 37.5 " fill-opacity="1" fill-rule="nonzero"/></g><g clip-path="url(#984e5a7bcf)"><path fill="#7b2f3d" d="M 37.5 225 L 150 225 L 150 337.5 L 37.5 337.5 Z M 37.5 225 " fill-opacity="1" fill-rule="nonzero"/></g><g clip-path="url(#5dd7251c74)"><path fill="#008080" d="M 225 225 L 337.5 225 L 337.5 337.5 L 225 337.5 Z M 225 225 " fill-opacity="1" fill-rule="nonzero"/></g></svg>