<svg xmlns="http://www.w3.org/2000/svg" xmlns:xlink="http://www.w3.org/1999/xlink" width="500" zoomAndPan="magnify" viewBox="0 0 375 374.999991" height="500" preserveAspectRatio="xMidYMid meet" version="1.0"><defs><g/></defs><g fill="#000000" fill-opacity="1"><g transform="translate(164.367181, 191.624987)"><g><path d="M 4.46875 -14.84375 L 4.46875 -2.96875 L 9.578125 -2.96875 L 9.578125 0 L 1.078125 0 L 1.078125 -14.84375 Z M 4.46875 -14.84375 "/></g></g></g><g fill="#000000" fill-opacity="1"><g transform="translate(174.537155, 191.624987)"><g><path d="M 1.9375 -1.09375 C 0.914062 -2.007812 0.40625 -3.179688 0.40625 -4.609375 C 0.40625 -6.035156 0.941406 -7.207031 2.015625 -8.125 C 3.085938 -9.039062 4.40625 -9.5 5.96875 -9.5 C 7.519531 -9.5 8.828125 -9.035156 9.890625 -8.109375 C 10.953125 -7.191406 11.484375 -6.023438 11.484375 -4.609375 C 11.484375 -3.191406 10.960938 -2.023438 9.921875 -1.109375 C 8.890625 -0.191406 7.570312 0.265625 5.96875 0.265625 C 4.3125 0.265625 2.96875 -0.1875 1.9375 -1.09375 Z M 4.421875 -6.171875 C 4.003906 -5.765625 3.796875 -5.242188 3.796875 -4.609375 C 3.796875 -3.972656 3.992188 -3.453125 4.390625 -3.046875 C 4.785156 -2.648438 5.304688 -2.453125 5.953125 -2.453125 C 6.578125 -2.453125 7.085938 -2.65625 7.484375 -3.0625 C 7.890625 -3.46875 8.09375 -3.984375 8.09375 -4.609375 C 8.09375 -5.242188 7.882812 -5.765625 7.46875 -6.171875 C 7.0625 -6.578125 6.554688 -6.78125 5.953125 -6.78125 C 5.347656 -6.78125 4.835938 -6.578125 4.421875 -6.171875 Z M 4.421875 -6.171875 "/></g></g></g><g fill="#000000" fill-opacity="1"><g transform="translate(186.435119, 191.624987)"><g><path d="M 0.671875 2.265625 L 3.28125 0.984375 C 3.757812 1.773438 4.59375 2.171875 5.78125 2.171875 C 6.332031 2.171875 6.84375 1.992188 7.3125 1.640625 C 7.789062 1.285156 8.03125 0.742188 8.03125 0.015625 L 8.03125 -0.671875 C 7.46875 -0.046875 6.457031 0.265625 5 0.265625 C 3.664062 0.265625 2.566406 -0.203125 1.703125 -1.140625 C 0.835938 -2.085938 0.40625 -3.242188 0.40625 -4.609375 C 0.40625 -5.972656 0.835938 -7.128906 1.703125 -8.078125 C 2.566406 -9.023438 3.664062 -9.5 5 -9.5 C 6.1875 -9.5 7.175781 -9.132812 7.96875 -8.40625 L 8.03125 -8.40625 L 8.03125 -9.234375 L 11.21875 -9.234375 L 11.21875 0.25 C 11.21875 1.75 10.71875 2.90625 9.71875 3.71875 C 8.71875 4.539062 7.40625 4.953125 5.78125 4.953125 C 3.132812 4.953125 1.429688 4.054688 0.671875 2.265625 Z M 4.421875 -6.171875 C 4.003906 -5.765625 3.796875 -5.242188 3.796875 -4.609375 C 3.796875 -3.972656 3.992188 -3.453125 4.390625 -3.046875 C 4.785156 -2.648438 5.304688 -2.453125 5.953125 -2.453125 C 6.578125 -2.453125 7.085938 -2.65625 7.484375 -3.0625 C 7.890625 -3.46875 8.09375 -3.984375 8.09375 -4.609375 C 8.09375 -5.242188 7.882812 -5.765625 7.46875 -6.171875 C 7.0625 -6.578125 6.554688 -6.78125 5.953125 -6.78125 C 5.347656 -6.78125 4.835938 -6.578125 4.421875 -6.171875 Z M 4.421875 -6.171875 "/></g></g></g><g fill="#000000" fill-opacity="1"><g transform="translate(198.729082, 191.624987)"><g><path d="M 1.9375 -1.09375 C 0.914062 -2.007812 0.40625 -3.179688 0.40625 -4.609375 C 0.40625 -6.035156 0.941406 -7.207031 2.015625 -8.125 C 3.085938 -9.039062 4.40625 -9.5 5.96875 -9.5 C 7.519531 -9.5 8.828125 -9.035156 9.890625 -8.109375 C 10.953125 -7.191406 11.484375 -6.023438 11.484375 -4.609375 C 11.484375 -3.191406 10.960938 -2.023438 9.921875 -1.109375 C 8.890625 -0.191406 7.570312 0.265625 5.96875 0.265625 C 4.3125 0.265625 2.96875 -0.1875 1.9375 -1.09375 Z M 4.421875 -6.171875 C 4.003906 -5.765625 3.796875 -5.242188 3.796875 -4.609375 C 3.796875 -3.972656 3.992188 -3.453125 4.390625 -3.046875 C 4.785156 -2.648438 5.304688 -2.453125 5.953125 -2.453125 C 6.578125 -2.453125 7.085938 -2.65625 7.484375 -3.0625 C 7.890625 -3.46875 8.09375 -3.984375 8.09375 -4.609375 C 8.09375 -5.242188 7.882812 -5.765625 7.46875 -6.171875 C 7.0625 -6.578125 6.554688 -6.78125 5.953125 -6.78125 C 5.347656 -6.78125 4.835938 -6.578125 4.421875 -6.171875 Z M 4.421875 -6.171875 "/></g></g></g></svg>