<svg xmlns="http://www.w3.org/2000/svg" xmlns:xlink="http://www.w3.org/1999/xlink" width="500" zoomAndPan="magnify" viewBox="0 0 375 374.999991" height="500" preserveAspectRatio="xMidYMid meet" version="1.0"><defs><g/></defs><g fill="#000000" fill-opacity="1"><g transform="translate(84.892969, 196.124987)"><g><path d="M 0.25 -21.125 L 0.25 -26.40625 L 18.8125 -26.40625 L 18.8125 -21.125 L 12.546875 -21.125 L 12.546875 0 L 6.53125 0 L 6.53125 -21.125 Z M 0.25 -21.125 "/></g></g></g><g fill="#000000" fill-opacity="1"><g transform="translate(103.960278, 196.124987)"><g><path d="M 14.375 -16.421875 L 20.890625 -16.421875 L 8 8.3125 L 1.46875 8.3125 L 7.140625 -2.5625 L -0.640625 -16.421875 L 5.890625 -16.421875 L 10.46875 -8 Z M 14.375 -16.421875 "/></g></g></g><g fill="#000000" fill-opacity="1"><g transform="translate(124.211295, 196.124987)"><g><path d="M 18.8125 -14.375 C 20.351562 -12.707031 21.125 -10.65625 21.125 -8.21875 C 21.125 -5.789062 20.351562 -3.734375 18.8125 -2.046875 C 17.28125 -0.359375 15.328125 0.484375 12.953125 0.484375 C 10.785156 0.484375 8.992188 -0.195312 7.578125 -1.5625 L 7.578125 8.3125 L 1.921875 8.3125 L 1.921875 -16.421875 L 7.515625 -16.421875 L 7.515625 -14.5625 L 7.578125 -14.5625 C 8.992188 -16.113281 10.785156 -16.890625 12.953125 -16.890625 C 15.328125 -16.890625 17.28125 -16.050781 18.8125 -14.375 Z M 14 -5.4375 C 14.738281 -6.164062 15.109375 -7.09375 15.109375 -8.21875 C 15.109375 -9.351562 14.753906 -10.273438 14.046875 -10.984375 C 13.335938 -11.703125 12.410156 -12.0625 11.265625 -12.0625 C 10.148438 -12.0625 9.234375 -11.695312 8.515625 -10.96875 C 7.804688 -10.25 7.453125 -9.332031 7.453125 -8.21875 C 7.453125 -7.09375 7.816406 -6.164062 8.546875 -5.4375 C 9.285156 -4.71875 10.191406 -4.359375 11.265625 -4.359375 C 12.347656 -4.359375 13.257812 -4.71875 14 -5.4375 Z M 14 -5.4375 "/></g></g></g><g fill="#000000" fill-opacity="1"><g transform="translate(146.061922, 196.124987)"><g><path d="M 3.46875 -1.953125 C 1.644531 -3.578125 0.734375 -5.65625 0.734375 -8.1875 C 0.734375 -10.726562 1.679688 -12.8125 3.578125 -14.4375 C 5.484375 -16.070312 7.832031 -16.890625 10.625 -16.890625 C 13.375 -16.890625 15.691406 -16.066406 17.578125 -14.421875 C 19.472656 -12.785156 20.421875 -10.707031 20.421875 -8.1875 C 20.421875 -5.675781 19.492188 -3.601562 17.640625 -1.96875 C 15.796875 -0.332031 13.457031 0.484375 10.625 0.484375 C 7.675781 0.484375 5.289062 -0.328125 3.46875 -1.953125 Z M 7.84375 -10.96875 C 7.113281 -10.25 6.75 -9.320312 6.75 -8.1875 C 6.75 -7.0625 7.097656 -6.140625 7.796875 -5.421875 C 8.503906 -4.710938 9.4375 -4.359375 10.59375 -4.359375 C 11.695312 -4.359375 12.609375 -4.71875 13.328125 -5.4375 C 14.046875 -6.164062 14.40625 -7.082031 14.40625 -8.1875 C 14.40625 -9.320312 14.035156 -10.25 13.296875 -10.96875 C 12.554688 -11.695312 11.65625 -12.0625 10.59375 -12.0625 C 9.5 -12.0625 8.582031 -11.695312 7.84375 -10.96875 Z M 7.84375 -10.96875 "/></g></g></g><g fill="#000000" fill-opacity="1"><g transform="translate(167.208725, 196.124987)"><g><path d="M 1.1875 4.03125 L 5.828125 1.765625 C 6.679688 3.171875 8.160156 3.875 10.265625 3.875 C 11.253906 3.875 12.164062 3.554688 13 2.921875 C 13.84375 2.296875 14.265625 1.332031 14.265625 0.03125 L 14.265625 -1.1875 C 13.265625 -0.0703125 11.472656 0.484375 8.890625 0.484375 C 6.523438 0.484375 4.570312 -0.351562 3.03125 -2.03125 C 1.5 -3.707031 0.734375 -5.757812 0.734375 -8.1875 C 0.734375 -10.625 1.5 -12.679688 3.03125 -14.359375 C 4.570312 -16.046875 6.523438 -16.890625 8.890625 -16.890625 C 11.003906 -16.890625 12.765625 -16.238281 14.171875 -14.9375 L 14.265625 -14.9375 L 14.265625 -16.421875 L 19.9375 -16.421875 L 19.9375 0.453125 C 19.9375 3.117188 19.050781 5.175781 17.28125 6.625 C 15.507812 8.070312 13.171875 8.796875 10.265625 8.796875 C 5.578125 8.796875 2.550781 7.207031 1.1875 4.03125 Z M 7.84375 -10.96875 C 7.113281 -10.25 6.75 -9.320312 6.75 -8.1875 C 6.75 -7.0625 7.097656 -6.140625 7.796875 -5.421875 C 8.503906 -4.710938 9.4375 -4.359375 10.59375 -4.359375 C 11.695312 -4.359375 12.609375 -4.71875 13.328125 -5.4375 C 14.046875 -6.164062 14.40625 -7.082031 14.40625 -8.1875 C 14.40625 -9.320312 14.035156 -10.25 13.296875 -10.96875 C 12.554688 -11.695312 11.65625 -12.0625 10.59375 -12.0625 C 9.5 -12.0625 8.582031 -11.695312 7.84375 -10.96875 Z M 7.84375 -10.96875 "/></g></g></g><g fill="#000000" fill-opacity="1"><g transform="translate(189.059352, 196.124987)"><g><path d="M 1.921875 0 L 1.921875 -16.421875 L 7.578125 -16.421875 L 7.578125 -14.046875 L 7.640625 -14.046875 C 7.691406 -14.128906 7.765625 -14.234375 7.859375 -14.359375 C 7.953125 -14.492188 8.15625 -14.71875 8.46875 -15.03125 C 8.789062 -15.351562 9.132812 -15.640625 9.5 -15.890625 C 9.863281 -16.148438 10.332031 -16.378906 10.90625 -16.578125 C 11.488281 -16.785156 12.078125 -16.890625 12.671875 -16.890625 C 13.285156 -16.890625 13.890625 -16.804688 14.484375 -16.640625 C 15.085938 -16.472656 15.53125 -16.300781 15.8125 -16.125 L 16.25 -15.875 L 13.890625 -11.078125 C 13.179688 -11.671875 12.195312 -11.96875 10.9375 -11.96875 C 10.257812 -11.96875 9.675781 -11.816406 9.1875 -11.515625 C 8.695312 -11.222656 8.347656 -10.863281 8.140625 -10.4375 C 7.941406 -10.007812 7.796875 -9.644531 7.703125 -9.34375 C 7.617188 -9.039062 7.578125 -8.804688 7.578125 -8.640625 L 7.578125 0 Z M 1.921875 0 "/></g></g></g><g fill="#000000" fill-opacity="1"><g transform="translate(204.991438, 196.124987)"><g><path d="M 3.03125 -2.03125 C 1.5 -3.707031 0.734375 -5.757812 0.734375 -8.1875 C 0.734375 -10.625 1.5 -12.679688 3.03125 -14.359375 C 4.570312 -16.046875 6.523438 -16.890625 8.890625 -16.890625 C 11.066406 -16.890625 12.859375 -16.207031 14.265625 -14.84375 L 14.265625 -16.421875 L 19.9375 -16.421875 L 19.9375 0 L 14.34375 0 L 14.34375 -1.859375 L 14.265625 -1.859375 C 12.859375 -0.296875 11.066406 0.484375 8.890625 0.484375 C 6.523438 0.484375 4.570312 -0.351562 3.03125 -2.03125 Z M 7.84375 -10.96875 C 7.113281 -10.25 6.75 -9.320312 6.75 -8.1875 C 6.75 -7.0625 7.097656 -6.140625 7.796875 -5.421875 C 8.503906 -4.710938 9.4375 -4.359375 10.59375 -4.359375 C 11.695312 -4.359375 12.609375 -4.71875 13.328125 -5.4375 C 14.046875 -6.164062 14.40625 -7.082031 14.40625 -8.1875 C 14.40625 -9.320312 14.035156 -10.25 13.296875 -10.96875 C 12.554688 -11.695312 11.65625 -12.0625 10.59375 -12.0625 C 9.5 -12.0625 8.582031 -11.695312 7.84375 -10.96875 Z M 7.84375 -10.96875 "/></g></g></g><g fill="#000000" fill-opacity="1"><g transform="translate(226.842065, 196.124987)"><g><path d="M 18.8125 -14.375 C 20.351562 -12.707031 21.125 -10.65625 21.125 -8.21875 C 21.125 -5.789062 20.351562 -3.734375 18.8125 -2.046875 C 17.28125 -0.359375 15.328125 0.484375 12.953125 0.484375 C 10.785156 0.484375 8.992188 -0.195312 7.578125 -1.5625 L 7.578125 8.3125 L 1.921875 8.3125 L 1.921875 -16.421875 L 7.515625 -16.421875 L 7.515625 -14.5625 L 7.578125 -14.5625 C 8.992188 -16.113281 10.785156 -16.890625 12.953125 -16.890625 C 15.328125 -16.890625 17.28125 -16.050781 18.8125 -14.375 Z M 14 -5.4375 C 14.738281 -6.164062 15.109375 -7.09375 15.109375 -8.21875 C 15.109375 -9.351562 14.753906 -10.273438 14.046875 -10.984375 C 13.335938 -11.703125 12.410156 -12.0625 11.265625 -12.0625 C 10.148438 -12.0625 9.234375 -11.695312 8.515625 -10.96875 C 7.804688 -10.25 7.453125 -9.332031 7.453125 -8.21875 C 7.453125 -7.09375 7.816406 -6.164062 8.546875 -5.4375 C 9.285156 -4.71875 10.191406 -4.359375 11.265625 -4.359375 C 12.347656 -4.359375 13.257812 -4.71875 14 -5.4375 Z M 14 -5.4375 "/></g></g></g><g fill="#000000" fill-opacity="1"><g transform="translate(248.692692, 196.124987)"><g><path d="M 1.921875 0 L 1.921875 -27.515625 L 7.578125 -27.515625 L 7.578125 -14.6875 L 7.640625 -14.6875 C 9.117188 -16.15625 10.691406 -16.890625 12.359375 -16.890625 C 13.160156 -16.890625 13.960938 -16.78125 14.765625 -16.5625 C 15.566406 -16.351562 16.332031 -16.023438 17.0625 -15.578125 C 17.800781 -15.128906 18.398438 -14.492188 18.859375 -13.671875 C 19.316406 -12.859375 19.546875 -11.90625 19.546875 -10.8125 L 19.546875 0 L 13.890625 0 L 13.890625 -9.28125 C 13.890625 -10.132812 13.613281 -10.878906 13.0625 -11.515625 C 12.519531 -12.160156 11.8125 -12.484375 10.9375 -12.484375 C 10.082031 -12.484375 9.304688 -12.148438 8.609375 -11.484375 C 7.921875 -10.828125 7.578125 -10.09375 7.578125 -9.28125 L 7.578125 0 Z M 1.921875 0 "/></g></g></g><g fill="#000000" fill-opacity="1"><g transform="translate(269.839495, 196.124987)"><g><path d="M 14.375 -16.421875 L 20.890625 -16.421875 L 8 8.3125 L 1.46875 8.3125 L 7.140625 -2.5625 L -0.640625 -16.421875 L 5.890625 -16.421875 L 10.46875 -8 Z M 14.375 -16.421875 "/></g></g></g></svg>