<svg xmlns="http://www.w3.org/2000/svg" xmlns:xlink="http://www.w3.org/1999/xlink" width="500" zoomAndPan="magnify" viewBox="0 0 375 374.999991" height="500" preserveAspectRatio="xMidYMid meet" version="1.0"><defs><g/></defs><g fill="#000000" fill-opacity="1"><g transform="translate(137.303901, 142.300011)"><g><path d="M 4.640625 -10.78125 L 4.640625 -19.613281 L 9.695312 -19.613281 C 11.007812 -19.613281 12.0625 -19.195312 12.863281 -18.398438 C 13.628906 -17.566406 14.046875 -16.542969 14.046875 -15.261719 C 14.046875 -13.949219 13.628906 -12.894531 12.796875 -12.03125 C 11.964844 -11.199219 10.941406 -10.78125 9.695312 -10.78125 Z M 16.285156 -15.199219 C 16.285156 -17.117188 15.582031 -18.683594 14.238281 -19.933594 C 12.894531 -21.148438 11.292969 -21.757812 9.375 -21.757812 L 2.398438 -21.757812 L 2.398438 0 L 4.640625 0 L 4.640625 -8.605469 L 9.375 -8.605469 C 11.292969 -8.605469 12.925781 -9.214844 14.238281 -10.429688 C 15.582031 -11.710938 16.285156 -13.277344 16.285156 -15.199219 Z M 16.285156 -15.199219 "/></g></g></g><g fill="#000000" fill-opacity="1"><g transform="translate(154.227744, 142.300011)"><g><path d="M 9.628906 -11.167969 L 9.628906 -14.078125 C 9.183594 -14.269531 8.703125 -14.367188 8.222656 -14.367188 C 6.621094 -14.367188 5.472656 -13.46875 4.734375 -11.742188 L 4.640625 -11.167969 L 4.640625 -14.078125 L 2.398438 -14.078125 L 2.398438 0 L 4.640625 0 L 4.640625 -7.039062 C 4.640625 -8.191406 4.894531 -9.214844 5.4375 -10.140625 C 5.695312 -10.621094 6.046875 -11.039062 6.464844 -11.359375 C 6.878906 -11.679688 7.390625 -11.871094 7.964844 -11.871094 C 8.542969 -11.871094 9.085938 -11.613281 9.628906 -11.167969 Z M 9.628906 -11.167969 "/></g></g></g><g fill="#000000" fill-opacity="1"><g transform="translate(164.177294, 142.300011)"><g><path d="M 4.671875 -18.941406 C 4.382812 -19.195312 4.03125 -19.355469 3.648438 -19.355469 C 3.261719 -19.355469 2.910156 -19.195312 2.65625 -18.941406 C 2.367188 -18.652344 2.238281 -18.300781 2.238281 -17.917969 C 2.238281 -17.535156 2.367188 -17.179688 2.65625 -16.925781 C 2.910156 -16.636719 3.261719 -16.507812 3.648438 -16.507812 C 4.03125 -16.507812 4.382812 -16.636719 4.671875 -16.925781 C 4.925781 -17.179688 5.085938 -17.535156 5.085938 -17.917969 C 5.085938 -18.300781 4.925781 -18.652344 4.671875 -18.941406 Z M 4.800781 0 L 4.800781 -14.078125 L 2.558594 -14.078125 L 2.558594 0 Z M 4.800781 0 "/></g></g></g><g fill="#000000" fill-opacity="1"><g transform="translate(171.503492, 142.300011)"><g><path d="M 20.253906 -0.0625 L 22.492188 -0.0625 L 22.492188 -8.863281 C 22.492188 -10.429688 22.078125 -11.742188 21.308594 -12.765625 C 20.925781 -13.277344 20.414062 -13.660156 19.835938 -13.980469 C 19.230469 -14.300781 18.429688 -14.460938 17.46875 -14.460938 C 16.476562 -14.460938 15.613281 -14.171875 14.878906 -13.660156 C 14.207031 -13.148438 13.660156 -12.542969 13.214844 -11.773438 C 13.054688 -12.125 12.863281 -12.445312 12.636719 -12.765625 C 12.253906 -13.277344 11.742188 -13.660156 11.167969 -13.980469 C 10.558594 -14.300781 9.757812 -14.460938 8.796875 -14.460938 C 7.808594 -14.460938 6.941406 -14.171875 6.207031 -13.660156 C 5.566406 -13.183594 5.054688 -12.605469 4.640625 -11.871094 L 4.640625 -14.140625 L 2.398438 -14.140625 L 2.398438 -0.0625 L 4.640625 -0.0625 L 4.640625 -7.261719 C 4.734375 -8.382812 5.023438 -9.375 5.503906 -10.175781 C 5.824219 -10.75 6.304688 -11.261719 6.878906 -11.644531 C 7.453125 -12.03125 8.0625 -12.222656 8.734375 -12.222656 C 9.375 -12.222656 9.886719 -12.09375 10.207031 -11.902344 C 11.101562 -11.328125 11.582031 -10.300781 11.582031 -8.863281 L 11.582031 -0.0625 L 13.820312 -0.0625 L 13.820312 -8.863281 C 13.820312 -9.023438 13.789062 -9.214844 13.789062 -9.375 C 13.886719 -9.664062 14.015625 -9.917969 14.171875 -10.175781 C 14.492188 -10.75 14.972656 -11.261719 15.550781 -11.644531 C 16.125 -12.03125 16.734375 -12.222656 17.40625 -12.222656 C 18.046875 -12.222656 18.558594 -12.09375 18.878906 -11.902344 C 19.773438 -11.328125 20.253906 -10.300781 20.253906 -8.863281 Z M 20.253906 -0.0625 "/></g></g></g><g fill="#000000" fill-opacity="1"><g transform="translate(195.913486, 142.300011)"><g><path d="M 13.597656 -7.039062 C 13.597656 -5.664062 13.117188 -4.449219 12.15625 -3.457031 C 11.199219 -2.429688 10.015625 -1.917969 8.636719 -1.917969 C 7.230469 -1.917969 6.046875 -2.429688 5.085938 -3.457031 C 4.128906 -4.449219 3.679688 -5.664062 3.679688 -7.039062 C 3.679688 -8.382812 4.128906 -9.597656 5.085938 -10.621094 C 6.046875 -11.644531 7.230469 -12.15625 8.636719 -12.15625 C 10.015625 -12.15625 11.199219 -11.644531 12.15625 -10.621094 C 13.117188 -9.597656 13.597656 -8.382812 13.597656 -7.039062 Z M 15.835938 0 L 15.835938 -14.078125 L 13.597656 -14.078125 L 13.597656 -11.644531 C 13.46875 -11.839844 13.308594 -12 13.183594 -12.15625 C 11.839844 -13.628906 10.207031 -14.398438 8.285156 -14.398438 C 6.335938 -14.398438 4.703125 -13.628906 3.359375 -12.15625 C 2.078125 -10.6875 1.441406 -8.992188 1.441406 -7.039062 C 1.441406 -5.054688 2.078125 -3.359375 3.359375 -1.917969 C 4.703125 -0.414062 6.335938 0.320312 8.285156 0.320312 C 10.207031 0.320312 11.839844 -0.414062 13.183594 -1.917969 C 13.308594 -2.046875 13.46875 -2.207031 13.597656 -2.398438 L 13.597656 0 Z M 15.835938 0 "/></g></g></g><g fill="#000000" fill-opacity="1"><g transform="translate(214.149005, 142.300011)"><g><path d="M 9.628906 -11.167969 L 9.628906 -14.078125 C 9.183594 -14.269531 8.703125 -14.367188 8.222656 -14.367188 C 6.621094 -14.367188 5.472656 -13.46875 4.734375 -11.742188 L 4.640625 -11.167969 L 4.640625 -14.078125 L 2.398438 -14.078125 L 2.398438 0 L 4.640625 0 L 4.640625 -7.039062 C 4.640625 -8.191406 4.894531 -9.214844 5.4375 -10.140625 C 5.695312 -10.621094 6.046875 -11.039062 6.464844 -11.359375 C 6.878906 -11.679688 7.390625 -11.871094 7.964844 -11.871094 C 8.542969 -11.871094 9.085938 -11.613281 9.628906 -11.167969 Z M 9.628906 -11.167969 "/></g></g></g><g fill="#000000" fill-opacity="1"><g transform="translate(224.098555, 142.300011)"><g><path d="M 4.191406 8 L 13.917969 -14.078125 L 11.421875 -14.078125 L 7.390625 -4.640625 L 2.878906 -14.078125 L 0.320312 -14.078125 L 6.207031 -2.304688 L 1.472656 8 Z M 4.191406 8 "/></g></g></g><g fill="#000000" fill-opacity="1"><g transform="translate(114.311709, 218.449966)"><g><path d="M 8.414062 -10.238281 C 11.230469 -9.566406 13.148438 -8.832031 14.171875 -8 C 14.878906 -7.421875 15.230469 -6.6875 15.230469 -5.792969 C 15.230469 -4.894531 15.039062 -4.160156 14.652344 -3.648438 C 13.695312 -2.304688 11.964844 -1.632812 9.535156 -1.632812 C 6.144531 -1.632812 4.222656 -2.785156 3.808594 -5.085938 L 1.183594 -5.085938 C 1.953125 -1.40625 4.734375 0.414062 9.535156 0.414062 C 11.679688 0.414062 13.46875 -0.03125 14.910156 -0.992188 C 16.636719 -2.113281 17.535156 -3.777344 17.535156 -5.949219 C 17.535156 -7.742188 16.828125 -9.117188 15.421875 -10.078125 C 14.429688 -10.78125 12.828125 -11.421875 10.621094 -12 C 8.382812 -12.574219 6.941406 -13.054688 6.269531 -13.40625 C 4.800781 -14.140625 4.0625 -15.164062 4.09375 -16.507812 C 4.09375 -17.214844 4.222656 -17.820312 4.542969 -18.269531 C 5.375 -19.515625 6.847656 -20.15625 8.957031 -20.15625 C 11.933594 -20.15625 13.628906 -19.195312 14.078125 -17.339844 L 16.507812 -17.339844 C 15.710938 -20.476562 13.183594 -22.078125 8.957031 -22.078125 C 7.039062 -22.078125 5.34375 -21.566406 3.933594 -20.539062 C 2.496094 -19.515625 1.757812 -18.011719 1.757812 -15.964844 C 1.757812 -13.183594 4 -11.261719 8.414062 -10.238281 Z M 8.414062 -10.238281 "/></g></g></g><g fill="#000000" fill-opacity="1"><g transform="translate(132.675195, 218.449966)"><g><path d="M 16.15625 -7.359375 C 16.15625 -9.277344 15.390625 -10.941406 13.917969 -12.382812 C 12.476562 -13.757812 10.75 -14.460938 8.796875 -14.460938 C 6.75 -14.460938 5.023438 -13.726562 3.582031 -12.285156 C 2.144531 -10.847656 1.441406 -9.117188 1.441406 -7.101562 C 1.441406 -5.054688 2.144531 -3.328125 3.582031 -1.917969 C 4.253906 -1.246094 5.023438 -0.734375 5.917969 -0.351562 C 6.816406 0.03125 7.871094 0.222656 9.117188 0.222656 C 10.367188 0.222656 11.582031 -0.160156 12.796875 -0.929688 C 14.015625 -1.695312 14.910156 -2.785156 15.515625 -4.128906 L 12.957031 -4.128906 C 12.445312 -3.457031 11.839844 -2.945312 11.101562 -2.558594 C 10.367188 -2.175781 9.597656 -2.015625 8.796875 -2.015625 C 7.582031 -2.015625 6.496094 -2.398438 5.535156 -3.199219 C 4.574219 -3.96875 3.96875 -4.960938 3.777344 -6.175781 L 16.15625 -6.175781 Z M 13.789062 -8.09375 L 3.808594 -8.09375 C 3.933594 -8.671875 4.160156 -9.214844 4.480469 -9.726562 C 5.503906 -11.390625 6.941406 -12.222656 8.796875 -12.222656 C 9.984375 -12.222656 11.039062 -11.839844 11.964844 -11.070312 C 12.925781 -10.269531 13.5 -9.277344 13.789062 -8.09375 Z M 13.789062 -8.09375 "/></g></g></g><g fill="#000000" fill-opacity="1"><g transform="translate(150.110909, 218.449966)"><g><path d="M 15.550781 -9.023438 C 15.101562 -10.589844 14.238281 -11.871094 12.988281 -12.863281 C 11.679688 -13.855469 10.238281 -14.367188 8.636719 -14.367188 C 6.621094 -14.367188 4.894531 -13.628906 3.519531 -12.191406 C 2.113281 -10.75 1.441406 -9.023438 1.441406 -7.039062 C 1.441406 -5.023438 2.113281 -3.328125 3.519531 -1.855469 C 4.160156 -1.183594 4.894531 -0.640625 5.792969 -0.257812 C 6.65625 0.128906 7.550781 0.320312 8.445312 0.320312 C 9.34375 0.320312 10.140625 0.222656 10.847656 -0.03125 C 13.085938 -0.832031 14.621094 -2.335938 15.421875 -4.605469 L 12.894531 -4.605469 C 12.445312 -3.808594 11.871094 -3.167969 11.101562 -2.71875 C 10.335938 -2.238281 9.535156 -2.015625 8.636719 -2.015625 C 7.261719 -2.015625 6.109375 -2.496094 5.152344 -3.488281 C 4.191406 -4.480469 3.742188 -5.664062 3.742188 -7.039062 C 3.742188 -8.351562 4.191406 -9.535156 5.152344 -10.527344 C 5.597656 -10.972656 6.109375 -11.359375 6.71875 -11.613281 C 7.292969 -11.871094 8.03125 -12.03125 8.863281 -12.03125 C 9.695312 -12.03125 10.496094 -11.742188 11.328125 -11.199219 C 12.125 -10.621094 12.734375 -9.917969 13.117188 -9.023438 Z M 15.550781 -9.023438 "/></g></g></g><g fill="#000000" fill-opacity="1"><g transform="translate(166.778815, 218.449966)"><g><path d="M 13.917969 -7.101562 C 13.917969 -5.695312 13.40625 -4.511719 12.414062 -3.519531 C 11.390625 -2.496094 10.207031 -2.015625 8.796875 -2.015625 C 7.390625 -2.015625 6.175781 -2.496094 5.183594 -3.519531 C 4.160156 -4.511719 3.679688 -5.695312 3.679688 -7.101562 C 3.679688 -8.511719 4.160156 -9.695312 5.183594 -10.71875 C 6.175781 -11.710938 7.390625 -12.222656 8.796875 -12.222656 C 10.207031 -12.222656 11.390625 -11.710938 12.414062 -10.71875 C 13.40625 -9.695312 13.917969 -8.511719 13.917969 -7.101562 Z M 16.15625 -7.101562 C 16.15625 -9.117188 15.421875 -10.847656 13.980469 -12.285156 C 12.542969 -13.726562 10.8125 -14.460938 8.796875 -14.460938 C 6.75 -14.460938 5.023438 -13.726562 3.582031 -12.285156 C 2.144531 -10.847656 1.441406 -9.117188 1.441406 -7.101562 C 1.441406 -5.054688 2.144531 -3.328125 3.582031 -1.917969 C 5.023438 -0.480469 6.78125 0.222656 8.796875 0.222656 C 10.78125 0.222656 12.542969 -0.480469 13.980469 -1.917969 C 15.421875 -3.328125 16.15625 -5.054688 16.15625 -7.101562 Z M 16.15625 -7.101562 "/></g></g></g><g fill="#000000" fill-opacity="1"><g transform="translate(184.374494, 218.449966)"><g><path d="M 12.125 0 L 14.367188 0 L 14.367188 -8.796875 C 14.367188 -10.429688 13.917969 -11.742188 13.085938 -12.734375 C 12.636719 -13.246094 12.125 -13.628906 11.519531 -13.917969 C 10.878906 -14.207031 10.078125 -14.367188 9.085938 -14.367188 C 8.0625 -14.367188 7.199219 -14.078125 6.429688 -13.566406 C 5.695312 -13.085938 5.085938 -12.445312 4.640625 -11.644531 L 4.640625 -14.078125 L 2.398438 -14.078125 L 2.398438 0 L 4.640625 0 L 4.640625 -5.886719 C 4.640625 -7.679688 4.960938 -9.085938 5.632812 -10.140625 C 6.015625 -10.71875 6.496094 -11.199219 7.101562 -11.582031 C 7.679688 -11.933594 8.480469 -12.125 9.4375 -12.125 C 10.398438 -12.125 11.070312 -11.773438 11.484375 -11.132812 C 11.902344 -10.496094 12.125 -9.695312 12.125 -8.796875 Z M 12.125 0 "/></g></g></g><g fill="#000000" fill-opacity="1"><g transform="translate(200.658486, 218.449966)"><g><path d="M 13.597656 -7.039062 C 13.597656 -5.664062 13.117188 -4.449219 12.15625 -3.457031 C 11.199219 -2.429688 10.015625 -1.917969 8.636719 -1.917969 C 7.230469 -1.917969 6.046875 -2.429688 5.085938 -3.457031 C 4.128906 -4.449219 3.679688 -5.664062 3.679688 -7.039062 C 3.679688 -8.382812 4.128906 -9.597656 5.085938 -10.621094 C 6.046875 -11.644531 7.230469 -12.15625 8.636719 -12.15625 C 10.015625 -12.15625 11.199219 -11.644531 12.15625 -10.621094 C 13.117188 -9.597656 13.597656 -8.382812 13.597656 -7.039062 Z M 15.835938 0 L 15.835938 -23.996094 L 13.597656 -23.996094 L 13.597656 -11.644531 C 13.46875 -11.839844 13.308594 -12 13.183594 -12.15625 C 11.839844 -13.628906 10.207031 -14.398438 8.285156 -14.398438 C 6.335938 -14.398438 4.703125 -13.628906 3.359375 -12.15625 C 2.078125 -10.6875 1.441406 -8.992188 1.441406 -7.039062 C 1.441406 -5.054688 2.078125 -3.359375 3.359375 -1.917969 C 4.703125 -0.414062 6.335938 0.320312 8.285156 0.320312 C 10.207031 0.320312 11.839844 -0.414062 13.183594 -1.917969 C 13.308594 -2.046875 13.46875 -2.207031 13.597656 -2.398438 L 13.597656 0 Z M 15.835938 0 "/></g></g></g><g fill="#000000" fill-opacity="1"><g transform="translate(218.894004, 218.449966)"><g><path d="M 13.597656 -7.039062 C 13.597656 -5.664062 13.117188 -4.449219 12.15625 -3.457031 C 11.199219 -2.429688 10.015625 -1.917969 8.636719 -1.917969 C 7.230469 -1.917969 6.046875 -2.429688 5.085938 -3.457031 C 4.128906 -4.449219 3.679688 -5.664062 3.679688 -7.039062 C 3.679688 -8.382812 4.128906 -9.597656 5.085938 -10.621094 C 6.046875 -11.644531 7.230469 -12.15625 8.636719 -12.15625 C 10.015625 -12.15625 11.199219 -11.644531 12.15625 -10.621094 C 13.117188 -9.597656 13.597656 -8.382812 13.597656 -7.039062 Z M 15.835938 0 L 15.835938 -14.078125 L 13.597656 -14.078125 L 13.597656 -11.644531 C 13.46875 -11.839844 13.308594 -12 13.183594 -12.15625 C 11.839844 -13.628906 10.207031 -14.398438 8.285156 -14.398438 C 6.335938 -14.398438 4.703125 -13.628906 3.359375 -12.15625 C 2.078125 -10.6875 1.441406 -8.992188 1.441406 -7.039062 C 1.441406 -5.054688 2.078125 -3.359375 3.359375 -1.917969 C 4.703125 -0.414062 6.335938 0.320312 8.285156 0.320312 C 10.207031 0.320312 11.839844 -0.414062 13.183594 -1.917969 C 13.308594 -2.046875 13.46875 -2.207031 13.597656 -2.398438 L 13.597656 0 Z M 15.835938 0 "/></g></g></g><g fill="#000000" fill-opacity="1"><g transform="translate(237.129522, 218.449966)"><g><path d="M 9.628906 -11.167969 L 9.628906 -14.078125 C 9.183594 -14.269531 8.703125 -14.367188 8.222656 -14.367188 C 6.621094 -14.367188 5.472656 -13.46875 4.734375 -11.742188 L 4.640625 -11.167969 L 4.640625 -14.078125 L 2.398438 -14.078125 L 2.398438 0 L 4.640625 0 L 4.640625 -7.039062 C 4.640625 -8.191406 4.894531 -9.214844 5.4375 -10.140625 C 5.695312 -10.621094 6.046875 -11.039062 6.464844 -11.359375 C 6.878906 -11.679688 7.390625 -11.871094 7.964844 -11.871094 C 8.542969 -11.871094 9.085938 -11.613281 9.628906 -11.167969 Z M 9.628906 -11.167969 "/></g></g></g><g fill="#000000" fill-opacity="1"><g transform="translate(247.079072, 218.449966)"><g><path d="M 4.191406 8 L 13.917969 -14.078125 L 11.421875 -14.078125 L 7.390625 -4.640625 L 2.878906 -14.078125 L 0.320312 -14.078125 L 6.207031 -2.304688 L 1.472656 8 Z M 4.191406 8 "/></g></g></g><g fill="#000000" fill-opacity="1"><g transform="translate(62.381252, 176.599968)"><g><path d="M 7.4375 -24.75 L 7.4375 -4.953125 L 15.953125 -4.953125 L 15.953125 0 L 1.796875 0 L 1.796875 -24.75 Z M 7.4375 -24.75 "/></g></g></g><g fill="#000000" fill-opacity="1"><g transform="translate(79.331232, 176.599968)"><g><path d="M 17.375 -6.953125 L 6.203125 -6.953125 C 6.203125 -5.878906 6.550781 -5.082031 7.25 -4.5625 C 7.957031 -4.039062 8.722656 -3.78125 9.546875 -3.78125 C 10.398438 -3.78125 11.078125 -3.894531 11.578125 -4.125 C 12.078125 -4.351562 12.648438 -4.804688 13.296875 -5.484375 L 17.125 -3.5625 C 15.53125 -0.882812 12.875 0.453125 9.15625 0.453125 C 6.832031 0.453125 4.835938 -0.335938 3.171875 -1.921875 C 1.515625 -3.515625 0.6875 -5.429688 0.6875 -7.671875 C 0.6875 -9.921875 1.515625 -11.84375 3.171875 -13.4375 C 4.835938 -15.039062 6.832031 -15.84375 9.15625 -15.84375 C 11.59375 -15.84375 13.578125 -15.132812 15.109375 -13.71875 C 16.640625 -12.3125 17.40625 -10.300781 17.40625 -7.6875 C 17.40625 -7.320312 17.394531 -7.078125 17.375 -6.953125 Z M 6.359375 -9.90625 L 12.203125 -9.90625 C 12.085938 -10.695312 11.773438 -11.304688 11.265625 -11.734375 C 10.753906 -12.171875 10.097656 -12.390625 9.296875 -12.390625 C 8.421875 -12.390625 7.722656 -12.160156 7.203125 -11.703125 C 6.679688 -11.242188 6.398438 -10.644531 6.359375 -9.90625 Z M 6.359375 -9.90625 "/></g></g></g><g fill="#000000" fill-opacity="1"><g transform="translate(97.421216, 176.599968)"><g><path d="M 2.84375 -1.90625 C 1.40625 -3.476562 0.6875 -5.398438 0.6875 -7.671875 C 0.6875 -9.953125 1.40625 -11.882812 2.84375 -13.46875 C 4.289062 -15.050781 6.125 -15.84375 8.34375 -15.84375 C 10.382812 -15.84375 12.0625 -15.203125 13.375 -13.921875 L 13.375 -15.390625 L 18.6875 -15.390625 L 18.6875 0 L 13.4375 0 L 13.4375 -1.734375 L 13.375 -1.734375 C 12.0625 -0.273438 10.382812 0.453125 8.34375 0.453125 C 6.125 0.453125 4.289062 -0.332031 2.84375 -1.90625 Z M 7.359375 -10.28125 C 6.671875 -9.601562 6.328125 -8.734375 6.328125 -7.671875 C 6.328125 -6.617188 6.65625 -5.753906 7.3125 -5.078125 C 7.976562 -4.410156 8.851562 -4.078125 9.9375 -4.078125 C 10.96875 -4.078125 11.816406 -4.414062 12.484375 -5.09375 C 13.160156 -5.78125 13.5 -6.644531 13.5 -7.6875 C 13.5 -8.738281 13.15625 -9.601562 12.46875 -10.28125 C 11.78125 -10.96875 10.9375 -11.3125 9.9375 -11.3125 C 8.914062 -11.3125 8.054688 -10.96875 7.359375 -10.28125 Z M 7.359375 -10.28125 "/></g></g></g><g fill="#000000" fill-opacity="1"><g transform="translate(117.911198, 176.599968)"><g><path d="M 1.109375 3.78125 L 5.453125 1.65625 C 6.253906 2.96875 7.644531 3.625 9.625 3.625 C 10.550781 3.625 11.40625 3.328125 12.1875 2.734375 C 12.976562 2.148438 13.375 1.25 13.375 0.03125 L 13.375 -1.109375 C 12.4375 -0.0664062 10.757812 0.453125 8.34375 0.453125 C 6.125 0.453125 4.289062 -0.332031 2.84375 -1.90625 C 1.40625 -3.476562 0.6875 -5.398438 0.6875 -7.671875 C 0.6875 -9.953125 1.40625 -11.882812 2.84375 -13.46875 C 4.289062 -15.050781 6.125 -15.84375 8.34375 -15.84375 C 10.320312 -15.84375 11.972656 -15.234375 13.296875 -14.015625 L 13.375 -14.015625 L 13.375 -15.390625 L 18.6875 -15.390625 L 18.6875 0.421875 C 18.6875 2.921875 17.851562 4.847656 16.1875 6.203125 C 14.53125 7.566406 12.34375 8.25 9.625 8.25 C 5.226562 8.25 2.390625 6.757812 1.109375 3.78125 Z M 7.359375 -10.28125 C 6.671875 -9.601562 6.328125 -8.734375 6.328125 -7.671875 C 6.328125 -6.617188 6.65625 -5.753906 7.3125 -5.078125 C 7.976562 -4.410156 8.851562 -4.078125 9.9375 -4.078125 C 10.96875 -4.078125 11.816406 -4.414062 12.484375 -5.09375 C 13.160156 -5.78125 13.5 -6.644531 13.5 -7.6875 C 13.5 -8.738281 13.15625 -9.601562 12.46875 -10.28125 C 11.78125 -10.96875 10.9375 -11.3125 9.9375 -11.3125 C 8.914062 -11.3125 8.054688 -10.96875 7.359375 -10.28125 Z M 7.359375 -10.28125 "/></g></g></g><g fill="#000000" fill-opacity="1"><g transform="translate(138.401179, 176.599968)"><g><path d="M 6.8125 -15.390625 L 6.8125 -8.0625 C 6.8125 -6.550781 7.039062 -5.472656 7.5 -4.828125 C 7.957031 -4.191406 8.734375 -3.875 9.828125 -3.875 C 10.929688 -3.875 11.710938 -4.191406 12.171875 -4.828125 C 12.640625 -5.472656 12.875 -6.550781 12.875 -8.0625 L 12.875 -15.390625 L 18.1875 -15.390625 L 18.1875 -6.78125 C 18.1875 -4.21875 17.519531 -2.367188 16.1875 -1.234375 C 14.851562 -0.109375 12.734375 0.453125 9.828125 0.453125 C 6.929688 0.453125 4.816406 -0.109375 3.484375 -1.234375 C 2.160156 -2.367188 1.5 -4.21875 1.5 -6.78125 L 1.5 -15.390625 Z M 6.8125 -15.390625 "/></g></g></g><g fill="#000000" fill-opacity="1"><g transform="translate(158.081159, 176.599968)"><g><path d="M 17.375 -6.953125 L 6.203125 -6.953125 C 6.203125 -5.878906 6.550781 -5.082031 7.25 -4.5625 C 7.957031 -4.039062 8.722656 -3.78125 9.546875 -3.78125 C 10.398438 -3.78125 11.078125 -3.894531 11.578125 -4.125 C 12.078125 -4.351562 12.648438 -4.804688 13.296875 -5.484375 L 17.125 -3.5625 C 15.53125 -0.882812 12.875 0.453125 9.15625 0.453125 C 6.832031 0.453125 4.835938 -0.335938 3.171875 -1.921875 C 1.515625 -3.515625 0.6875 -5.429688 0.6875 -7.671875 C 0.6875 -9.921875 1.515625 -11.84375 3.171875 -13.4375 C 4.835938 -15.039062 6.832031 -15.84375 9.15625 -15.84375 C 11.59375 -15.84375 13.578125 -15.132812 15.109375 -13.71875 C 16.640625 -12.3125 17.40625 -10.300781 17.40625 -7.6875 C 17.40625 -7.320312 17.394531 -7.078125 17.375 -6.953125 Z M 6.359375 -9.90625 L 12.203125 -9.90625 C 12.085938 -10.695312 11.773438 -11.304688 11.265625 -11.734375 C 10.753906 -12.171875 10.097656 -12.390625 9.296875 -12.390625 C 8.421875 -12.390625 7.722656 -12.160156 7.203125 -11.703125 C 6.679688 -11.242188 6.398438 -10.644531 6.359375 -9.90625 Z M 6.359375 -9.90625 "/></g></g></g><g fill="#000000" fill-opacity="1"><g transform="translate(176.171143, 176.599968)"><g/></g></g><g fill="#000000" fill-opacity="1"><g transform="translate(184.36113, 176.599968)"><g><path d="M 10.921875 -25.203125 C 12.265625 -25.203125 13.570312 -25.003906 14.84375 -24.609375 C 16.125 -24.222656 17.078125 -23.835938 17.703125 -23.453125 L 18.59375 -22.859375 L 16.3125 -18.359375 C 16.132812 -18.484375 15.882812 -18.640625 15.5625 -18.828125 C 15.25 -19.015625 14.648438 -19.265625 13.765625 -19.578125 C 12.890625 -19.898438 12.070312 -20.0625 11.3125 -20.0625 C 10.375 -20.0625 9.648438 -19.863281 9.140625 -19.46875 C 8.628906 -19.070312 8.375 -18.53125 8.375 -17.84375 C 8.375 -17.507812 8.492188 -17.195312 8.734375 -16.90625 C 8.972656 -16.613281 9.378906 -16.300781 9.953125 -15.96875 C 10.535156 -15.644531 11.046875 -15.378906 11.484375 -15.171875 C 11.929688 -14.972656 12.613281 -14.675781 13.53125 -14.28125 C 15.132812 -13.601562 16.5 -12.675781 17.625 -11.5 C 18.75 -10.332031 19.3125 -9.007812 19.3125 -7.53125 C 19.3125 -6.113281 19.054688 -4.875 18.546875 -3.8125 C 18.046875 -2.75 17.347656 -1.914062 16.453125 -1.3125 C 15.566406 -0.71875 14.582031 -0.273438 13.5 0.015625 C 12.414062 0.304688 11.242188 0.453125 9.984375 0.453125 C 8.910156 0.453125 7.851562 0.34375 6.8125 0.125 C 5.769531 -0.09375 4.898438 -0.367188 4.203125 -0.703125 C 3.503906 -1.035156 2.875 -1.359375 2.3125 -1.671875 C 1.75 -1.992188 1.335938 -2.265625 1.078125 -2.484375 L 0.6875 -2.8125 L 3.515625 -7.5625 C 3.753906 -7.363281 4.082031 -7.109375 4.5 -6.796875 C 4.914062 -6.484375 5.660156 -6.066406 6.734375 -5.546875 C 7.804688 -5.023438 8.75 -4.765625 9.5625 -4.765625 C 11.945312 -4.765625 13.140625 -5.578125 13.140625 -7.203125 C 13.140625 -7.535156 13.050781 -7.847656 12.875 -8.140625 C 12.707031 -8.429688 12.410156 -8.722656 11.984375 -9.015625 C 11.554688 -9.304688 11.175781 -9.535156 10.84375 -9.703125 C 10.507812 -9.867188 9.96875 -10.128906 9.21875 -10.484375 C 8.46875 -10.835938 7.914062 -11.101562 7.5625 -11.28125 C 6.0625 -12.019531 4.898438 -12.941406 4.078125 -14.046875 C 3.253906 -15.160156 2.84375 -16.359375 2.84375 -17.640625 C 2.84375 -19.859375 3.660156 -21.671875 5.296875 -23.078125 C 6.941406 -24.492188 8.816406 -25.203125 10.921875 -25.203125 Z M 10.921875 -25.203125 "/></g></g></g><g fill="#000000" fill-opacity="1"><g transform="translate(204.521109, 176.599968)"><g><path d="M 17.640625 -13.484375 C 19.078125 -11.910156 19.796875 -9.984375 19.796875 -7.703125 C 19.796875 -5.429688 19.078125 -3.503906 17.640625 -1.921875 C 16.203125 -0.335938 14.375 0.453125 12.15625 0.453125 C 10.113281 0.453125 8.429688 -0.1875 7.109375 -1.46875 L 7.109375 7.796875 L 1.796875 7.796875 L 1.796875 -15.390625 L 7.046875 -15.390625 L 7.046875 -13.65625 L 7.109375 -13.65625 C 8.429688 -15.113281 10.113281 -15.84375 12.15625 -15.84375 C 14.375 -15.84375 16.203125 -15.054688 17.640625 -13.484375 Z M 13.125 -5.09375 C 13.8125 -5.78125 14.15625 -6.648438 14.15625 -7.703125 C 14.15625 -8.765625 13.828125 -9.628906 13.171875 -10.296875 C 12.515625 -10.972656 11.644531 -11.3125 10.5625 -11.3125 C 9.519531 -11.3125 8.660156 -10.96875 7.984375 -10.28125 C 7.316406 -9.601562 6.984375 -8.742188 6.984375 -7.703125 C 6.984375 -6.648438 7.328125 -5.78125 8.015625 -5.09375 C 8.710938 -4.414062 9.5625 -4.078125 10.5625 -4.078125 C 11.582031 -4.078125 12.4375 -4.414062 13.125 -5.09375 Z M 13.125 -5.09375 "/></g></g></g><g fill="#000000" fill-opacity="1"><g transform="translate(225.01109, 176.599968)"><g><path d="M 2.84375 -1.90625 C 1.40625 -3.476562 0.6875 -5.398438 0.6875 -7.671875 C 0.6875 -9.953125 1.40625 -11.882812 2.84375 -13.46875 C 4.289062 -15.050781 6.125 -15.84375 8.34375 -15.84375 C 10.382812 -15.84375 12.0625 -15.203125 13.375 -13.921875 L 13.375 -15.390625 L 18.6875 -15.390625 L 18.6875 0 L 13.4375 0 L 13.4375 -1.734375 L 13.375 -1.734375 C 12.0625 -0.273438 10.382812 0.453125 8.34375 0.453125 C 6.125 0.453125 4.289062 -0.332031 2.84375 -1.90625 Z M 7.359375 -10.28125 C 6.671875 -9.601562 6.328125 -8.734375 6.328125 -7.671875 C 6.328125 -6.617188 6.65625 -5.753906 7.3125 -5.078125 C 7.976562 -4.410156 8.851562 -4.078125 9.9375 -4.078125 C 10.96875 -4.078125 11.816406 -4.414062 12.484375 -5.09375 C 13.160156 -5.78125 13.5 -6.644531 13.5 -7.6875 C 13.5 -8.738281 13.15625 -9.601562 12.46875 -10.28125 C 11.78125 -10.96875 10.9375 -11.3125 9.9375 -11.3125 C 8.914062 -11.3125 8.054688 -10.96875 7.359375 -10.28125 Z M 7.359375 -10.28125 "/></g></g></g><g fill="#000000" fill-opacity="1"><g transform="translate(245.501072, 176.599968)"><g><path d="M 1.796875 0 L 1.796875 -15.390625 L 7.109375 -15.390625 L 7.109375 -13.171875 L 7.171875 -13.171875 C 7.210938 -13.253906 7.273438 -13.351562 7.359375 -13.46875 C 7.453125 -13.59375 7.648438 -13.800781 7.953125 -14.09375 C 8.253906 -14.394531 8.570312 -14.664062 8.90625 -14.90625 C 9.25 -15.144531 9.691406 -15.359375 10.234375 -15.546875 C 10.773438 -15.742188 11.320312 -15.84375 11.875 -15.84375 C 12.457031 -15.84375 13.03125 -15.757812 13.59375 -15.59375 C 14.15625 -15.4375 14.5625 -15.28125 14.8125 -15.125 L 15.234375 -14.875 L 13.015625 -10.375 C 12.359375 -10.9375 11.441406 -11.21875 10.265625 -11.21875 C 9.617188 -11.21875 9.066406 -11.078125 8.609375 -10.796875 C 8.148438 -10.515625 7.820312 -10.175781 7.625 -9.78125 C 7.4375 -9.382812 7.300781 -9.046875 7.21875 -8.765625 C 7.144531 -8.484375 7.109375 -8.257812 7.109375 -8.09375 L 7.109375 0 Z M 1.796875 0 "/></g></g></g><g fill="#000000" fill-opacity="1"><g transform="translate(260.441069, 176.599968)"><g><path d="M 2.703125 -15.390625 L 2.703125 -21.125 L 8.015625 -21.125 L 8.015625 -15.390625 L 11.25 -15.390625 L 11.25 -11.34375 L 8.015625 -11.34375 L 8.015625 -6.453125 C 8.015625 -5.023438 8.410156 -4.3125 9.203125 -4.3125 C 9.410156 -4.3125 9.625 -4.351562 9.84375 -4.4375 C 10.0625 -4.519531 10.226562 -4.601562 10.34375 -4.6875 L 10.53125 -4.796875 L 11.84375 -0.515625 C 10.707031 0.128906 9.410156 0.453125 7.953125 0.453125 C 6.953125 0.453125 6.09375 0.28125 5.375 -0.0625 C 4.65625 -0.414062 4.109375 -0.890625 3.734375 -1.484375 C 3.367188 -2.078125 3.101562 -2.695312 2.9375 -3.34375 C 2.78125 -3.988281 2.703125 -4.6875 2.703125 -5.4375 L 2.703125 -11.34375 L 0.484375 -11.34375 L 0.484375 -15.390625 Z M 2.703125 -15.390625 "/></g></g></g><g fill="#000000" fill-opacity="1"><g transform="translate(272.291059, 176.599968)"><g><path d="M 2.84375 -1.90625 C 1.40625 -3.476562 0.6875 -5.398438 0.6875 -7.671875 C 0.6875 -9.953125 1.40625 -11.882812 2.84375 -13.46875 C 4.289062 -15.050781 6.125 -15.84375 8.34375 -15.84375 C 10.382812 -15.84375 12.0625 -15.203125 13.375 -13.921875 L 13.375 -15.390625 L 18.6875 -15.390625 L 18.6875 0 L 13.4375 0 L 13.4375 -1.734375 L 13.375 -1.734375 C 12.0625 -0.273438 10.382812 0.453125 8.34375 0.453125 C 6.125 0.453125 4.289062 -0.332031 2.84375 -1.90625 Z M 7.359375 -10.28125 C 6.671875 -9.601562 6.328125 -8.734375 6.328125 -7.671875 C 6.328125 -6.617188 6.65625 -5.753906 7.3125 -5.078125 C 7.976562 -4.410156 8.851562 -4.078125 9.9375 -4.078125 C 10.96875 -4.078125 11.816406 -4.414062 12.484375 -5.09375 C 13.160156 -5.78125 13.5 -6.644531 13.5 -7.6875 C 13.5 -8.738281 13.15625 -9.601562 12.46875 -10.28125 C 11.78125 -10.96875 10.9375 -11.3125 9.9375 -11.3125 C 8.914062 -11.3125 8.054688 -10.96875 7.359375 -10.28125 Z M 7.359375 -10.28125 "/></g></g></g><g fill="#000000" fill-opacity="1"><g transform="translate(292.78104, 176.599968)"><g><path d="M 1.796875 0 L 1.796875 -15.390625 L 7.109375 -15.390625 L 7.109375 -13.765625 L 7.171875 -13.765625 C 8.546875 -15.148438 10.015625 -15.84375 11.578125 -15.84375 C 12.335938 -15.84375 13.09375 -15.738281 13.84375 -15.53125 C 14.59375 -15.332031 15.3125 -15.023438 16 -14.609375 C 16.695312 -14.191406 17.257812 -13.597656 17.6875 -12.828125 C 18.113281 -12.054688 18.328125 -11.160156 18.328125 -10.140625 L 18.328125 0 L 13.015625 0 L 13.015625 -8.703125 C 13.015625 -9.503906 12.757812 -10.203125 12.25 -10.796875 C 11.738281 -11.398438 11.078125 -11.703125 10.265625 -11.703125 C 9.460938 -11.703125 8.734375 -11.390625 8.078125 -10.765625 C 7.429688 -10.148438 7.109375 -9.460938 7.109375 -8.703125 L 7.109375 0 Z M 1.796875 0 "/></g></g></g><g fill="#000000" fill-opacity="1"><g transform="translate(58.842193, 254.999983)"><g><path d="M 22.378906 -9.539062 L 11.761719 -9.539062 L 11.761719 -7.710938 L 20.039062 -7.710938 C 19.410156 -5.941406 18.359375 -4.5 16.859375 -3.449219 C 15.359375 -2.371094 13.679688 -1.859375 11.851562 -1.859375 C 9.511719 -1.859375 7.53125 -2.671875 5.878906 -4.320312 C 4.261719 -5.96875 3.449219 -7.980469 3.449219 -10.289062 C 3.449219 -12.601562 4.261719 -14.578125 5.910156 -16.230469 C 7.53125 -17.851562 9.511719 -18.691406 11.851562 -18.691406 C 13.589844 -18.691406 15.179688 -18.179688 16.589844 -17.191406 C 18.03125 -16.199219 19.050781 -14.910156 19.710938 -13.261719 L 21.929688 -13.261719 C 21.238281 -15.511719 19.949219 -17.308594 18.089844 -18.691406 C 16.230469 -20.070312 14.070312 -20.789062 11.640625 -20.789062 C 10.320312 -20.789062 9.03125 -20.488281 7.769531 -19.949219 C 6.480469 -19.410156 5.371094 -18.660156 4.410156 -17.699219 C 3.449219 -16.738281 2.699219 -15.628906 2.160156 -14.371094 C 1.621094 -13.078125 1.351562 -11.699219 1.351562 -10.261719 C 1.351562 -8.820312 1.621094 -7.441406 2.160156 -6.179688 C 2.699219 -4.890625 3.449219 -3.78125 4.410156 -2.820312 C 5.371094 -1.859375 6.480469 -1.109375 7.769531 -0.570312 C 9.03125 -0.03125 10.410156 0.238281 11.851562 0.238281 C 14.308594 0.238281 16.53125 -0.539062 18.511719 -2.128906 C 20.488281 -3.75 21.71875 -5.789062 22.171875 -8.28125 Z M 22.378906 -9.539062 "/></g></g></g><g fill="#000000" fill-opacity="1"><g transform="translate(82.572168, 254.999983)"><g><path d="M 4.351562 0 L 4.351562 -22.5 L 2.25 -22.5 L 2.25 0 Z M 4.351562 0 "/></g></g></g><g fill="#000000" fill-opacity="1"><g transform="translate(89.172158, 254.999983)"><g><path d="M 12.75 -6.601562 C 12.75 -5.308594 12.300781 -4.171875 11.398438 -3.238281 C 10.5 -2.28125 9.390625 -1.800781 8.101562 -1.800781 C 6.78125 -1.800781 5.671875 -2.28125 4.769531 -3.238281 C 3.871094 -4.171875 3.449219 -5.308594 3.449219 -6.601562 C 3.449219 -7.859375 3.871094 -9 4.769531 -9.960938 C 5.671875 -10.921875 6.78125 -11.398438 8.101562 -11.398438 C 9.390625 -11.398438 10.5 -10.921875 11.398438 -9.960938 C 12.300781 -9 12.75 -7.859375 12.75 -6.601562 Z M 14.851562 0 L 14.851562 -13.199219 L 12.75 -13.199219 L 12.75 -10.921875 C 12.628906 -11.101562 12.480469 -11.25 12.359375 -11.398438 C 11.101562 -12.78125 9.570312 -13.5 7.769531 -13.5 C 5.941406 -13.5 4.410156 -12.78125 3.148438 -11.398438 C 1.949219 -10.019531 1.351562 -8.429688 1.351562 -6.601562 C 1.351562 -4.738281 1.949219 -3.148438 3.148438 -1.800781 C 4.410156 -0.390625 5.941406 0.300781 7.769531 0.300781 C 9.570312 0.300781 11.101562 -0.390625 12.359375 -1.800781 C 12.480469 -1.921875 12.628906 -2.070312 12.75 -2.25 L 12.75 0 Z M 14.851562 0 "/></g></g></g><g fill="#000000" fill-opacity="1"><g transform="translate(106.272137, 254.999983)"><g><path d="M 14.578125 -8.460938 C 14.160156 -9.929688 13.351562 -11.128906 12.179688 -12.058594 C 10.949219 -12.988281 9.601562 -13.46875 8.101562 -13.46875 C 6.210938 -13.46875 4.589844 -12.78125 3.300781 -11.429688 C 1.980469 -10.078125 1.351562 -8.460938 1.351562 -6.601562 C 1.351562 -4.710938 1.980469 -3.121094 3.300781 -1.738281 C 3.898438 -1.109375 4.589844 -0.601562 5.429688 -0.238281 C 6.238281 0.121094 7.078125 0.300781 7.921875 0.300781 C 8.761719 0.300781 9.511719 0.210938 10.171875 -0.03125 C 12.269531 -0.78125 13.710938 -2.191406 14.460938 -4.320312 L 12.089844 -4.320312 C 11.671875 -3.570312 11.128906 -2.96875 10.410156 -2.550781 C 9.691406 -2.101562 8.941406 -1.890625 8.101562 -1.890625 C 6.808594 -1.890625 5.730469 -2.339844 4.828125 -3.269531 C 3.929688 -4.199219 3.511719 -5.308594 3.511719 -6.601562 C 3.511719 -7.828125 3.929688 -8.941406 4.828125 -9.871094 C 5.25 -10.289062 5.730469 -10.648438 6.300781 -10.890625 C 6.839844 -11.128906 7.53125 -11.28125 8.308594 -11.28125 C 9.089844 -11.28125 9.839844 -11.011719 10.621094 -10.5 C 11.371094 -9.960938 11.941406 -9.300781 12.300781 -8.460938 Z M 14.578125 -8.460938 "/></g></g></g><g fill="#000000" fill-opacity="1"><g transform="translate(121.902122, 254.999983)"><g><path d="M 4.378906 -17.761719 C 4.109375 -18 3.78125 -18.148438 3.421875 -18.148438 C 3.058594 -18.148438 2.730469 -18 2.488281 -17.761719 C 2.21875 -17.488281 2.101562 -17.160156 2.101562 -16.800781 C 2.101562 -16.441406 2.21875 -16.109375 2.488281 -15.871094 C 2.730469 -15.601562 3.058594 -15.480469 3.421875 -15.480469 C 3.78125 -15.480469 4.109375 -15.601562 4.378906 -15.871094 C 4.621094 -16.109375 4.769531 -16.441406 4.769531 -16.800781 C 4.769531 -17.160156 4.621094 -17.488281 4.378906 -17.761719 Z M 4.5 0 L 4.5 -13.199219 L 2.398438 -13.199219 L 2.398438 0 Z M 4.5 0 "/></g></g></g><g fill="#000000" fill-opacity="1"><g transform="translate(128.772112, 254.999983)"><g><path d="M 12.75 -6.601562 C 12.75 -5.308594 12.300781 -4.171875 11.398438 -3.238281 C 10.5 -2.28125 9.390625 -1.800781 8.101562 -1.800781 C 6.78125 -1.800781 5.671875 -2.28125 4.769531 -3.238281 C 3.871094 -4.171875 3.449219 -5.308594 3.449219 -6.601562 C 3.449219 -7.859375 3.871094 -9 4.769531 -9.960938 C 5.671875 -10.921875 6.78125 -11.398438 8.101562 -11.398438 C 9.390625 -11.398438 10.5 -10.921875 11.398438 -9.960938 C 12.300781 -9 12.75 -7.859375 12.75 -6.601562 Z M 14.851562 0 L 14.851562 -13.199219 L 12.75 -13.199219 L 12.75 -10.921875 C 12.628906 -11.101562 12.480469 -11.25 12.359375 -11.398438 C 11.101562 -12.78125 9.570312 -13.5 7.769531 -13.5 C 5.941406 -13.5 4.410156 -12.78125 3.148438 -11.398438 C 1.949219 -10.019531 1.351562 -8.429688 1.351562 -6.601562 C 1.351562 -4.738281 1.949219 -3.148438 3.148438 -1.800781 C 4.410156 -0.390625 5.941406 0.300781 7.769531 0.300781 C 9.570312 0.300781 11.101562 -0.390625 12.359375 -1.800781 C 12.480469 -1.921875 12.628906 -2.070312 12.75 -2.25 L 12.75 0 Z M 14.851562 0 "/></g></g></g><g fill="#000000" fill-opacity="1"><g transform="translate(145.872091, 254.999983)"><g><path d="M 4.351562 0 L 4.351562 -22.5 L 2.25 -22.5 L 2.25 0 Z M 4.351562 0 "/></g></g></g><g fill="#000000" fill-opacity="1"><g transform="translate(160.572072, 254.999983)"><g><path d="M 4.351562 0 L 4.351562 -20.398438 L 2.25 -20.398438 L 2.25 0 Z M 4.351562 0 "/></g></g></g><g fill="#000000" fill-opacity="1"><g transform="translate(167.172062, 254.999983)"><g><path d="M 11.371094 0 L 13.46875 0 L 13.46875 -8.25 C 13.46875 -9.78125 13.050781 -11.011719 12.269531 -11.941406 C 11.851562 -12.421875 11.371094 -12.78125 10.800781 -13.050781 C 10.199219 -13.320312 9.449219 -13.46875 8.519531 -13.46875 C 7.558594 -13.46875 6.75 -13.199219 6.03125 -12.71875 C 5.339844 -12.269531 4.769531 -11.671875 4.351562 -10.921875 L 4.351562 -13.199219 L 2.25 -13.199219 L 2.25 0 L 4.351562 0 L 4.351562 -5.519531 C 4.351562 -7.199219 4.648438 -8.519531 5.28125 -9.511719 C 5.640625 -10.050781 6.089844 -10.5 6.660156 -10.859375 C 7.199219 -11.191406 7.949219 -11.371094 8.851562 -11.371094 C 9.75 -11.371094 10.378906 -11.039062 10.769531 -10.441406 C 11.160156 -9.839844 11.371094 -9.089844 11.371094 -8.25 Z M 11.371094 0 "/></g></g></g><g fill="#000000" fill-opacity="1"><g transform="translate(182.44205, 254.999983)"><g><path d="M 12.75 -6.601562 C 12.75 -5.308594 12.300781 -4.171875 11.398438 -3.238281 C 10.5 -2.28125 9.390625 -1.800781 8.101562 -1.800781 C 6.78125 -1.800781 5.671875 -2.28125 4.769531 -3.238281 C 3.871094 -4.171875 3.449219 -5.308594 3.449219 -6.601562 C 3.449219 -7.859375 3.871094 -9 4.769531 -9.960938 C 5.671875 -10.921875 6.78125 -11.398438 8.101562 -11.398438 C 9.390625 -11.398438 10.5 -10.921875 11.398438 -9.960938 C 12.300781 -9 12.75 -7.859375 12.75 -6.601562 Z M 14.851562 0 L 14.851562 -22.5 L 12.75 -22.5 L 12.75 -10.921875 C 12.628906 -11.101562 12.480469 -11.25 12.359375 -11.398438 C 11.101562 -12.78125 9.570312 -13.5 7.769531 -13.5 C 5.941406 -13.5 4.410156 -12.78125 3.148438 -11.398438 C 1.949219 -10.019531 1.351562 -8.429688 1.351562 -6.601562 C 1.351562 -4.738281 1.949219 -3.148438 3.148438 -1.800781 C 4.410156 -0.390625 5.941406 0.300781 7.769531 0.300781 C 9.570312 0.300781 11.101562 -0.390625 12.359375 -1.800781 C 12.480469 -1.921875 12.628906 -2.070312 12.75 -2.25 L 12.75 0 Z M 14.851562 0 "/></g></g></g><g fill="#000000" fill-opacity="1"><g transform="translate(199.542029, 254.999983)"><g><path d="M 4.378906 -17.761719 C 4.109375 -18 3.78125 -18.148438 3.421875 -18.148438 C 3.058594 -18.148438 2.730469 -18 2.488281 -17.761719 C 2.21875 -17.488281 2.101562 -17.160156 2.101562 -16.800781 C 2.101562 -16.441406 2.21875 -16.109375 2.488281 -15.871094 C 2.730469 -15.601562 3.058594 -15.480469 3.421875 -15.480469 C 3.78125 -15.480469 4.109375 -15.601562 4.378906 -15.871094 C 4.621094 -16.109375 4.769531 -16.441406 4.769531 -16.800781 C 4.769531 -17.160156 4.621094 -17.488281 4.378906 -17.761719 Z M 4.5 0 L 4.5 -13.199219 L 2.398438 -13.199219 L 2.398438 0 Z M 4.5 0 "/></g></g></g><g fill="#000000" fill-opacity="1"><g transform="translate(206.412019, 254.999983)"><g><path d="M 9.328125 -20.550781 L 9.328125 -22.5 L 7.828125 -22.5 C 6.328125 -22.5 5.28125 -22.109375 4.648438 -21.390625 C 4.019531 -20.671875 3.71875 -19.621094 3.71875 -18.300781 L 3.71875 -13.199219 L 1.050781 -13.199219 L 1.050781 -11.25 L 3.71875 -11.25 L 3.71875 0 L 5.820312 0 L 5.820312 -11.25 L 9.328125 -11.25 L 9.328125 -13.199219 L 5.820312 -13.199219 L 5.820312 -18.898438 C 5.820312 -19.351562 5.910156 -19.738281 6.148438 -20.070312 C 6.359375 -20.371094 6.808594 -20.550781 7.53125 -20.550781 Z M 9.328125 -20.550781 "/></g></g></g><g fill="#000000" fill-opacity="1"><g transform="translate(216.642007, 254.999983)"><g><path d="M 9.328125 -20.550781 L 9.328125 -22.5 L 7.828125 -22.5 C 6.328125 -22.5 5.28125 -22.109375 4.648438 -21.390625 C 4.019531 -20.671875 3.71875 -19.621094 3.71875 -18.300781 L 3.71875 -13.199219 L 1.050781 -13.199219 L 1.050781 -11.25 L 3.71875 -11.25 L 3.71875 0 L 5.820312 0 L 5.820312 -11.25 L 9.328125 -11.25 L 9.328125 -13.199219 L 5.820312 -13.199219 L 5.820312 -18.898438 C 5.820312 -19.351562 5.910156 -19.738281 6.148438 -20.070312 C 6.359375 -20.371094 6.808594 -20.550781 7.53125 -20.550781 Z M 9.328125 -20.550781 "/></g></g></g><g fill="#000000" fill-opacity="1"><g transform="translate(226.871994, 254.999983)"><g><path d="M 15.148438 -6.898438 C 15.148438 -8.699219 14.429688 -10.261719 13.050781 -11.609375 C 11.699219 -12.898438 10.078125 -13.558594 8.25 -13.558594 C 6.328125 -13.558594 4.710938 -12.871094 3.359375 -11.519531 C 2.011719 -10.171875 1.351562 -8.550781 1.351562 -6.660156 C 1.351562 -4.738281 2.011719 -3.121094 3.359375 -1.800781 C 3.988281 -1.171875 4.710938 -0.691406 5.550781 -0.328125 C 6.390625 0.03125 7.378906 0.210938 8.550781 0.210938 C 9.71875 0.210938 10.859375 -0.148438 12 -0.871094 C 13.140625 -1.589844 13.980469 -2.609375 14.550781 -3.871094 L 12.148438 -3.871094 C 11.671875 -3.238281 11.101562 -2.761719 10.410156 -2.398438 C 9.71875 -2.039062 9 -1.890625 8.25 -1.890625 C 7.109375 -1.890625 6.089844 -2.25 5.191406 -3 C 4.289062 -3.71875 3.71875 -4.648438 3.539062 -5.789062 L 15.148438 -5.789062 Z M 12.929688 -7.589844 L 3.570312 -7.589844 C 3.691406 -8.128906 3.898438 -8.640625 4.199219 -9.121094 C 5.160156 -10.679688 6.511719 -11.460938 8.25 -11.460938 C 9.359375 -11.460938 10.351562 -11.101562 11.21875 -10.378906 C 12.121094 -9.628906 12.660156 -8.699219 12.929688 -7.589844 Z M 12.929688 -7.589844 "/></g></g></g><g fill="#000000" fill-opacity="1"><g transform="translate(243.221973, 254.999983)"><g><path d="M 9.03125 -10.46875 L 9.03125 -13.199219 C 8.609375 -13.378906 8.160156 -13.46875 7.710938 -13.46875 C 6.210938 -13.46875 5.128906 -12.628906 4.441406 -11.011719 L 4.351562 -10.46875 L 4.351562 -13.199219 L 2.25 -13.199219 L 2.25 0 L 4.351562 0 L 4.351562 -6.601562 C 4.351562 -7.679688 4.589844 -8.640625 5.101562 -9.511719 C 5.339844 -9.960938 5.671875 -10.351562 6.058594 -10.648438 C 6.449219 -10.949219 6.929688 -11.128906 7.46875 -11.128906 C 8.011719 -11.128906 8.519531 -10.890625 9.03125 -10.46875 Z M 9.03125 -10.46875 "/></g></g></g><g fill="#000000" fill-opacity="1"><g transform="translate(252.551974, 254.999983)"><g><path d="M 15.148438 -6.898438 C 15.148438 -8.699219 14.429688 -10.261719 13.050781 -11.609375 C 11.699219 -12.898438 10.078125 -13.558594 8.25 -13.558594 C 6.328125 -13.558594 4.710938 -12.871094 3.359375 -11.519531 C 2.011719 -10.171875 1.351562 -8.550781 1.351562 -6.660156 C 1.351562 -4.738281 2.011719 -3.121094 3.359375 -1.800781 C 3.988281 -1.171875 4.710938 -0.691406 5.550781 -0.328125 C 6.390625 0.03125 7.378906 0.210938 8.550781 0.210938 C 9.71875 0.210938 10.859375 -0.148438 12 -0.871094 C 13.140625 -1.589844 13.980469 -2.609375 14.550781 -3.871094 L 12.148438 -3.871094 C 11.671875 -3.238281 11.101562 -2.761719 10.410156 -2.398438 C 9.71875 -2.039062 9 -1.890625 8.25 -1.890625 C 7.109375 -1.890625 6.089844 -2.25 5.191406 -3 C 4.289062 -3.71875 3.71875 -4.648438 3.539062 -5.789062 L 15.148438 -5.789062 Z M 12.929688 -7.589844 L 3.570312 -7.589844 C 3.691406 -8.128906 3.898438 -8.640625 4.199219 -9.121094 C 5.160156 -10.679688 6.511719 -11.460938 8.25 -11.460938 C 9.359375 -11.460938 10.351562 -11.101562 11.21875 -10.378906 C 12.121094 -9.628906 12.660156 -8.699219 12.929688 -7.589844 Z M 12.929688 -7.589844 "/></g></g></g><g fill="#000000" fill-opacity="1"><g transform="translate(268.901964, 254.999983)"><g><path d="M 11.371094 0 L 13.46875 0 L 13.46875 -8.25 C 13.46875 -9.78125 13.050781 -11.011719 12.269531 -11.941406 C 11.851562 -12.421875 11.371094 -12.78125 10.800781 -13.050781 C 10.199219 -13.320312 9.449219 -13.46875 8.519531 -13.46875 C 7.558594 -13.46875 6.75 -13.199219 6.03125 -12.71875 C 5.339844 -12.269531 4.769531 -11.671875 4.351562 -10.921875 L 4.351562 -13.199219 L 2.25 -13.199219 L 2.25 0 L 4.351562 0 L 4.351562 -5.519531 C 4.351562 -7.199219 4.648438 -8.519531 5.28125 -9.511719 C 5.640625 -10.050781 6.089844 -10.5 6.660156 -10.859375 C 7.199219 -11.191406 7.949219 -11.371094 8.851562 -11.371094 C 9.75 -11.371094 10.378906 -11.039062 10.769531 -10.441406 C 11.160156 -9.839844 11.371094 -9.089844 11.371094 -8.25 Z M 11.371094 0 "/></g></g></g><g fill="#000000" fill-opacity="1"><g transform="translate(284.171952, 254.999983)"><g><path d="M 14.578125 -8.460938 C 14.160156 -9.929688 13.351562 -11.128906 12.179688 -12.058594 C 10.949219 -12.988281 9.601562 -13.46875 8.101562 -13.46875 C 6.210938 -13.46875 4.589844 -12.78125 3.300781 -11.429688 C 1.980469 -10.078125 1.351562 -8.460938 1.351562 -6.601562 C 1.351562 -4.710938 1.980469 -3.121094 3.300781 -1.738281 C 3.898438 -1.109375 4.589844 -0.601562 5.429688 -0.238281 C 6.238281 0.121094 7.078125 0.300781 7.921875 0.300781 C 8.761719 0.300781 9.511719 0.210938 10.171875 -0.03125 C 12.269531 -0.78125 13.710938 -2.191406 14.460938 -4.320312 L 12.089844 -4.320312 C 11.671875 -3.570312 11.128906 -2.96875 10.410156 -2.550781 C 9.691406 -2.101562 8.941406 -1.890625 8.101562 -1.890625 C 6.808594 -1.890625 5.730469 -2.339844 4.828125 -3.269531 C 3.929688 -4.199219 3.511719 -5.308594 3.511719 -6.601562 C 3.511719 -7.828125 3.929688 -8.941406 4.828125 -9.871094 C 5.25 -10.289062 5.730469 -10.648438 6.300781 -10.890625 C 6.839844 -11.128906 7.53125 -11.28125 8.308594 -11.28125 C 9.089844 -11.28125 9.839844 -11.011719 10.621094 -10.5 C 11.371094 -9.960938 11.941406 -9.300781 12.300781 -8.460938 Z M 14.578125 -8.460938 "/></g></g></g><g fill="#000000" fill-opacity="1"><g transform="translate(299.801925, 254.999983)"><g><path d="M 15.148438 -6.898438 C 15.148438 -8.699219 14.429688 -10.261719 13.050781 -11.609375 C 11.699219 -12.898438 10.078125 -13.558594 8.25 -13.558594 C 6.328125 -13.558594 4.710938 -12.871094 3.359375 -11.519531 C 2.011719 -10.171875 1.351562 -8.550781 1.351562 -6.660156 C 1.351562 -4.738281 2.011719 -3.121094 3.359375 -1.800781 C 3.988281 -1.171875 4.710938 -0.691406 5.550781 -0.328125 C 6.390625 0.03125 7.378906 0.210938 8.550781 0.210938 C 9.71875 0.210938 10.859375 -0.148438 12 -0.871094 C 13.140625 -1.589844 13.980469 -2.609375 14.550781 -3.871094 L 12.148438 -3.871094 C 11.671875 -3.238281 11.101562 -2.761719 10.410156 -2.398438 C 9.71875 -2.039062 9 -1.890625 8.25 -1.890625 C 7.109375 -1.890625 6.089844 -2.25 5.191406 -3 C 4.289062 -3.71875 3.71875 -4.648438 3.539062 -5.789062 L 15.148438 -5.789062 Z M 12.929688 -7.589844 L 3.570312 -7.589844 C 3.691406 -8.128906 3.898438 -8.640625 4.199219 -9.121094 C 5.160156 -10.679688 6.511719 -11.460938 8.25 -11.460938 C 9.359375 -11.460938 10.351562 -11.101562 11.21875 -10.378906 C 12.121094 -9.628906 12.660156 -8.699219 12.929688 -7.589844 Z M 12.929688 -7.589844 "/></g></g></g></svg>