<svg xmlns="http://www.w3.org/2000/svg" xmlns:xlink="http://www.w3.org/1999/xlink" width="500" zoomAndPan="magnify" viewBox="0 0 375 374.999991" height="500" preserveAspectRatio="xMidYMid meet" version="1.0"><defs><g/></defs><g fill="#000000" fill-opacity="1"><g transform="translate(116.798434, 205.750006)"><g><path d="M 3.328125 -4.5 L 5.5625 -10.132812 L 7.777344 -4.5 Z M 10.925781 0 L 5.5625 -13.085938 L 0.179688 0 L 1.546875 0 L 2.863281 -3.328125 L 8.242188 -3.328125 L 9.558594 0 Z M 10.925781 0 "/></g></g></g><g fill="#000000" fill-opacity="1"><g transform="translate(127.904398, 205.750006)"><g><path d="M 7.648438 -3.960938 C 7.648438 -3.1875 7.378906 -2.503906 6.839844 -1.945312 C 6.300781 -1.367188 5.632812 -1.078125 4.859375 -1.078125 C 4.066406 -1.078125 3.402344 -1.367188 2.863281 -1.945312 C 2.320312 -2.503906 2.070312 -3.1875 2.070312 -3.960938 C 2.070312 -4.714844 2.320312 -5.398438 2.863281 -5.976562 C 3.402344 -6.550781 4.066406 -6.839844 4.859375 -6.839844 C 5.632812 -6.839844 6.300781 -6.550781 6.839844 -5.976562 C 7.378906 -5.398438 7.648438 -4.714844 7.648438 -3.960938 Z M 8.910156 0 L 8.910156 -13.5 L 7.648438 -13.5 L 7.648438 -6.550781 C 7.578125 -6.660156 7.488281 -6.75 7.414062 -6.839844 C 6.660156 -7.667969 5.742188 -8.101562 4.660156 -8.101562 C 3.5625 -8.101562 2.644531 -7.667969 1.890625 -6.839844 C 1.171875 -6.011719 0.808594 -5.058594 0.808594 -3.960938 C 0.808594 -2.84375 1.171875 -1.890625 1.890625 -1.078125 C 2.644531 -0.234375 3.5625 0.179688 4.660156 0.179688 C 5.742188 0.179688 6.660156 -0.234375 7.414062 -1.078125 C 7.488281 -1.152344 7.578125 -1.242188 7.648438 -1.351562 L 7.648438 0 Z M 8.910156 0 "/></g></g></g><g fill="#000000" fill-opacity="1"><g transform="translate(138.164369, 205.750006)"><g><path d="M 7.648438 -3.960938 C 7.648438 -3.1875 7.378906 -2.503906 6.839844 -1.945312 C 6.300781 -1.367188 5.632812 -1.078125 4.859375 -1.078125 C 4.066406 -1.078125 3.402344 -1.367188 2.863281 -1.945312 C 2.320312 -2.503906 2.070312 -3.1875 2.070312 -3.960938 C 2.070312 -4.714844 2.320312 -5.398438 2.863281 -5.976562 C 3.402344 -6.550781 4.066406 -6.839844 4.859375 -6.839844 C 5.632812 -6.839844 6.300781 -6.550781 6.839844 -5.976562 C 7.378906 -5.398438 7.648438 -4.714844 7.648438 -3.960938 Z M 8.910156 0 L 8.910156 -13.5 L 7.648438 -13.5 L 7.648438 -6.550781 C 7.578125 -6.660156 7.488281 -6.75 7.414062 -6.839844 C 6.660156 -7.667969 5.742188 -8.101562 4.660156 -8.101562 C 3.5625 -8.101562 2.644531 -7.667969 1.890625 -6.839844 C 1.171875 -6.011719 0.808594 -5.058594 0.808594 -3.960938 C 0.808594 -2.84375 1.171875 -1.890625 1.890625 -1.078125 C 2.644531 -0.234375 3.5625 0.179688 4.660156 0.179688 C 5.742188 0.179688 6.660156 -0.234375 7.414062 -1.078125 C 7.488281 -1.152344 7.578125 -1.242188 7.648438 -1.351562 L 7.648438 0 Z M 8.910156 0 "/></g></g></g><g fill="#000000" fill-opacity="1"><g transform="translate(148.42434, 205.750006)"><g/></g></g><g fill="#000000" fill-opacity="1"><g transform="translate(153.284325, 205.750006)"><g><path d="M 7.648438 -3.960938 C 7.648438 -3.1875 7.378906 -2.503906 6.839844 -1.945312 C 6.300781 -1.367188 5.632812 -1.078125 4.859375 -1.078125 C 4.066406 -1.078125 3.402344 -1.367188 2.863281 -1.945312 C 2.320312 -2.503906 2.070312 -3.1875 2.070312 -3.960938 C 2.070312 -4.714844 2.320312 -5.398438 2.863281 -5.976562 C 3.402344 -6.550781 4.066406 -6.839844 4.859375 -6.839844 C 5.632812 -6.839844 6.300781 -6.550781 6.839844 -5.976562 C 7.378906 -5.398438 7.648438 -4.714844 7.648438 -3.960938 Z M 8.910156 0 L 8.910156 -7.921875 L 7.648438 -7.921875 L 7.648438 -6.550781 C 7.578125 -6.660156 7.488281 -6.75 7.414062 -6.839844 C 6.660156 -7.667969 5.742188 -8.101562 4.660156 -8.101562 C 3.5625 -8.101562 2.644531 -7.667969 1.890625 -6.839844 C 1.171875 -6.011719 0.808594 -5.058594 0.808594 -3.960938 C 0.808594 -2.84375 1.171875 -1.890625 1.890625 -1.078125 C 2.644531 -0.234375 3.5625 0.179688 4.660156 0.179688 C 5.742188 0.179688 6.660156 -0.234375 7.414062 -1.078125 C 7.488281 -1.152344 7.578125 -1.242188 7.648438 -1.351562 L 7.648438 0 Z M 8.910156 0 "/></g></g></g><g fill="#000000" fill-opacity="1"><g transform="translate(163.544296, 205.750006)"><g/></g></g><g fill="#000000" fill-opacity="1"><g transform="translate(168.404281, 205.750006)"><g><path d="M 2.484375 -1.117188 C 2.179688 -1.332031 1.945312 -1.691406 1.816406 -2.214844 L 0.484375 -2.214844 C 0.757812 -0.574219 1.800781 0.234375 3.636719 0.234375 C 4.066406 0.234375 4.464844 0.199219 4.84375 0.0898438 C 5.21875 -0.0195312 5.542969 -0.160156 5.851562 -0.359375 C 6.460938 -0.773438 6.769531 -1.402344 6.769531 -2.25 C 6.769531 -3.113281 6.371094 -3.726562 5.542969 -4.121094 C 5.203125 -4.285156 4.824219 -4.410156 4.410156 -4.5 C 4.015625 -4.589844 3.636719 -4.699219 3.292969 -4.804688 C 2.933594 -4.914062 2.644531 -5.058594 2.410156 -5.21875 C 2.179688 -5.382812 2.050781 -5.632812 2.050781 -5.992188 C 2.050781 -6.355469 2.195312 -6.625 2.484375 -6.785156 C 2.773438 -6.964844 3.113281 -7.054688 3.492188 -7.054688 C 3.886719 -7.054688 4.230469 -6.964844 4.5 -6.820312 C 4.769531 -6.679688 4.984375 -6.390625 5.113281 -5.957031 L 6.460938 -5.957031 C 6.300781 -6.75 5.957031 -7.308594 5.453125 -7.613281 C 4.933594 -7.9375 4.300781 -8.101562 3.527344 -8.101562 C 2.773438 -8.101562 2.105469 -7.882812 1.546875 -7.488281 C 1.007812 -7.074219 0.71875 -6.480469 0.71875 -5.6875 C 0.71875 -5.308594 0.828125 -4.96875 1.027344 -4.679688 C 1.242188 -4.375 1.546875 -4.140625 1.945312 -3.960938 C 2.304688 -3.796875 2.683594 -3.671875 3.078125 -3.5625 C 3.472656 -3.472656 3.851562 -3.367188 4.210938 -3.257812 C 5.023438 -2.988281 5.4375 -2.59375 5.4375 -2.089844 C 5.4375 -1.222656 4.859375 -0.808594 3.707031 -0.808594 C 3.222656 -0.808594 2.808594 -0.898438 2.484375 -1.117188 Z M 2.484375 -1.117188 "/></g></g></g><g fill="#000000" fill-opacity="1"><g transform="translate(175.640254, 205.750006)"><g><path d="M 6.820312 -1.351562 L 6.820312 0 L 8.082031 0 L 8.082031 -7.921875 L 6.820312 -7.921875 L 6.820312 -4.609375 C 6.820312 -3.492188 6.605469 -2.644531 6.191406 -2.015625 C 5.796875 -1.402344 5.09375 -1.097656 4.121094 -1.097656 C 3.582031 -1.097656 3.1875 -1.277344 2.953125 -1.636719 C 2.71875 -1.996094 2.609375 -2.449219 2.609375 -2.96875 L 2.609375 -7.921875 L 1.351562 -7.921875 L 1.351562 -2.96875 C 1.351562 -2.050781 1.585938 -1.296875 2.089844 -0.703125 C 2.59375 -0.125 3.277344 0.160156 4.175781 0.160156 C 5.347656 0.160156 6.226562 -0.34375 6.820312 -1.351562 Z M 6.820312 -1.351562 "/></g></g></g><g fill="#000000" fill-opacity="1"><g transform="translate(184.802222, 205.750006)"><g><path d="M 2.609375 0 L 2.609375 -1.351562 C 2.664062 -1.242188 2.753906 -1.152344 2.824219 -1.078125 C 3.582031 -0.234375 4.5 0.179688 5.597656 0.179688 C 6.679688 0.179688 7.597656 -0.234375 8.351562 -1.078125 C 9.070312 -1.890625 9.449219 -2.84375 9.449219 -3.960938 C 9.449219 -5.058594 9.070312 -6.011719 8.351562 -6.839844 C 7.597656 -7.667969 6.679688 -8.101562 5.597656 -8.101562 C 4.5 -8.101562 3.582031 -7.667969 2.824219 -6.839844 C 2.753906 -6.75 2.664062 -6.660156 2.609375 -6.550781 L 2.609375 -13.5 L 1.351562 -13.5 L 1.351562 0 Z M 8.191406 -3.960938 C 8.191406 -3.1875 7.921875 -2.503906 7.378906 -1.945312 C 6.839844 -1.367188 6.175781 -1.078125 5.398438 -1.078125 C 4.609375 -1.078125 3.941406 -1.367188 3.402344 -1.945312 C 2.863281 -2.503906 2.609375 -3.1875 2.609375 -3.960938 C 2.609375 -4.714844 2.863281 -5.398438 3.402344 -5.976562 C 3.941406 -6.550781 4.609375 -6.839844 5.398438 -6.839844 C 6.175781 -6.839844 6.839844 -6.550781 7.378906 -5.976562 C 7.921875 -5.398438 8.191406 -4.714844 8.191406 -3.960938 Z M 8.191406 -3.960938 "/></g></g></g><g fill="#000000" fill-opacity="1"><g transform="translate(195.062193, 205.750006)"><g><path d="M 2.609375 0 L 2.609375 -3.3125 C 2.609375 -4.410156 2.789062 -5.238281 3.167969 -5.8125 C 3.382812 -6.136719 3.652344 -6.371094 3.996094 -6.550781 C 4.320312 -6.730469 4.769531 -6.820312 5.308594 -6.820312 C 5.851562 -6.820312 6.226562 -6.625 6.460938 -6.265625 C 6.695312 -5.902344 6.820312 -5.453125 6.820312 -4.949219 L 6.820312 0 L 8.082031 0 L 8.082031 -4.949219 C 8.082031 -5.867188 7.828125 -6.605469 7.363281 -7.164062 C 7.109375 -7.453125 6.820312 -7.667969 6.480469 -7.828125 C 6.121094 -7.992188 5.671875 -8.082031 5.113281 -8.082031 C 4.535156 -8.082031 4.050781 -7.921875 3.617188 -7.632812 C 3.203125 -7.363281 2.863281 -7.003906 2.609375 -6.550781 L 2.609375 -13.5 L 1.351562 -13.5 L 1.351562 0 Z M 2.609375 0 "/></g></g></g><g fill="#000000" fill-opacity="1"><g transform="translate(204.22416, 205.750006)"><g><path d="M 9.089844 -4.140625 C 9.089844 -5.21875 8.65625 -6.15625 7.828125 -6.964844 C 7.019531 -7.738281 6.046875 -8.136719 4.949219 -8.136719 C 3.796875 -8.136719 2.824219 -7.722656 2.015625 -6.910156 C 1.207031 -6.101562 0.808594 -5.128906 0.808594 -3.996094 C 0.808594 -2.84375 1.207031 -1.871094 2.015625 -1.078125 C 2.394531 -0.703125 2.824219 -0.414062 3.328125 -0.199219 C 3.835938 0.0195312 4.429688 0.125 5.128906 0.125 C 5.832031 0.125 6.515625 -0.0898438 7.199219 -0.523438 C 7.882812 -0.953125 8.386719 -1.566406 8.730469 -2.320312 L 7.289062 -2.320312 C 7.003906 -1.945312 6.660156 -1.65625 6.246094 -1.441406 C 5.832031 -1.222656 5.398438 -1.132812 4.949219 -1.132812 C 4.265625 -1.132812 3.652344 -1.351562 3.113281 -1.800781 C 2.574219 -2.230469 2.230469 -2.789062 2.125 -3.472656 L 9.089844 -3.472656 Z M 7.757812 -4.554688 L 2.140625 -4.554688 C 2.214844 -4.878906 2.339844 -5.183594 2.519531 -5.472656 C 3.097656 -6.40625 3.90625 -6.875 4.949219 -6.875 C 5.617188 -6.875 6.210938 -6.660156 6.730469 -6.226562 C 7.273438 -5.777344 7.597656 -5.21875 7.757812 -4.554688 Z M 7.757812 -4.554688 "/></g></g></g><g fill="#000000" fill-opacity="1"><g transform="translate(214.034127, 205.750006)"><g><path d="M 7.648438 -3.960938 C 7.648438 -3.1875 7.378906 -2.503906 6.839844 -1.945312 C 6.300781 -1.367188 5.632812 -1.078125 4.859375 -1.078125 C 4.066406 -1.078125 3.402344 -1.367188 2.863281 -1.945312 C 2.320312 -2.503906 2.070312 -3.1875 2.070312 -3.960938 C 2.070312 -4.714844 2.320312 -5.398438 2.863281 -5.976562 C 3.402344 -6.550781 4.066406 -6.839844 4.859375 -6.839844 C 5.632812 -6.839844 6.300781 -6.550781 6.839844 -5.976562 C 7.378906 -5.398438 7.648438 -4.714844 7.648438 -3.960938 Z M 8.910156 0 L 8.910156 -7.921875 L 7.648438 -7.921875 L 7.648438 -6.550781 C 7.578125 -6.660156 7.488281 -6.75 7.414062 -6.839844 C 6.660156 -7.667969 5.742188 -8.101562 4.660156 -8.101562 C 3.5625 -8.101562 2.644531 -7.667969 1.890625 -6.839844 C 1.171875 -6.011719 0.808594 -5.058594 0.808594 -3.960938 C 0.808594 -2.84375 1.171875 -1.890625 1.890625 -1.078125 C 2.644531 -0.234375 3.5625 0.179688 4.660156 0.179688 C 5.742188 0.179688 6.660156 -0.234375 7.414062 -1.078125 C 7.488281 -1.152344 7.578125 -1.242188 7.648438 -1.351562 L 7.648438 0 Z M 8.910156 0 "/></g></g></g><g fill="#000000" fill-opacity="1"><g transform="translate(224.294098, 205.750006)"><g><path d="M 7.648438 -3.960938 C 7.648438 -3.1875 7.378906 -2.503906 6.839844 -1.945312 C 6.300781 -1.367188 5.632812 -1.078125 4.859375 -1.078125 C 4.066406 -1.078125 3.402344 -1.367188 2.863281 -1.945312 C 2.320312 -2.503906 2.070312 -3.1875 2.070312 -3.960938 C 2.070312 -4.714844 2.320312 -5.398438 2.863281 -5.976562 C 3.402344 -6.550781 4.066406 -6.839844 4.859375 -6.839844 C 5.632812 -6.839844 6.300781 -6.550781 6.839844 -5.976562 C 7.378906 -5.398438 7.648438 -4.714844 7.648438 -3.960938 Z M 8.910156 0 L 8.910156 -13.5 L 7.648438 -13.5 L 7.648438 -6.550781 C 7.578125 -6.660156 7.488281 -6.75 7.414062 -6.839844 C 6.660156 -7.667969 5.742188 -8.101562 4.660156 -8.101562 C 3.5625 -8.101562 2.644531 -7.667969 1.890625 -6.839844 C 1.171875 -6.011719 0.808594 -5.058594 0.808594 -3.960938 C 0.808594 -2.84375 1.171875 -1.890625 1.890625 -1.078125 C 2.644531 -0.234375 3.5625 0.179688 4.660156 0.179688 C 5.742188 0.179688 6.660156 -0.234375 7.414062 -1.078125 C 7.488281 -1.152344 7.578125 -1.242188 7.648438 -1.351562 L 7.648438 0 Z M 8.910156 0 "/></g></g></g><g fill="#000000" fill-opacity="1"><g transform="translate(234.554069, 205.750006)"><g><path d="M 2.628906 -10.65625 C 2.464844 -10.800781 2.269531 -10.890625 2.050781 -10.890625 C 1.835938 -10.890625 1.636719 -10.800781 1.492188 -10.65625 C 1.332031 -10.492188 1.261719 -10.296875 1.261719 -10.078125 C 1.261719 -9.863281 1.332031 -9.664062 1.492188 -9.523438 C 1.636719 -9.359375 1.835938 -9.289062 2.050781 -9.289062 C 2.269531 -9.289062 2.464844 -9.359375 2.628906 -9.523438 C 2.773438 -9.664062 2.863281 -9.863281 2.863281 -10.078125 C 2.863281 -10.296875 2.773438 -10.492188 2.628906 -10.65625 Z M 2.699219 0 L 2.699219 -7.921875 L 1.441406 -7.921875 L 1.441406 0 Z M 2.699219 0 "/></g></g></g><g fill="#000000" fill-opacity="1"><g transform="translate(238.676059, 205.750006)"><g><path d="M 6.820312 0 L 8.082031 0 L 8.082031 -4.949219 C 8.082031 -5.867188 7.828125 -6.605469 7.363281 -7.164062 C 7.109375 -7.453125 6.820312 -7.667969 6.480469 -7.828125 C 6.121094 -7.992188 5.671875 -8.082031 5.113281 -8.082031 C 4.535156 -8.082031 4.050781 -7.921875 3.617188 -7.632812 C 3.203125 -7.363281 2.863281 -7.003906 2.609375 -6.550781 L 2.609375 -7.921875 L 1.351562 -7.921875 L 1.351562 0 L 2.609375 0 L 2.609375 -3.3125 C 2.609375 -4.320312 2.789062 -5.113281 3.167969 -5.707031 C 3.382812 -6.03125 3.652344 -6.300781 3.996094 -6.515625 C 4.320312 -6.714844 4.769531 -6.820312 5.308594 -6.820312 C 5.851562 -6.820312 6.226562 -6.625 6.460938 -6.265625 C 6.695312 -5.902344 6.820312 -5.453125 6.820312 -4.949219 Z M 6.820312 0 "/></g></g></g><g fill="#000000" fill-opacity="1"><g transform="translate(247.838026, 205.750006)"><g><path d="M 7.757812 -3.960938 C 7.757812 -3.1875 7.488281 -2.503906 6.949219 -1.945312 C 6.40625 -1.367188 5.742188 -1.078125 4.96875 -1.078125 C 4.195312 -1.078125 3.527344 -1.367188 2.988281 -1.945312 C 2.449219 -2.503906 2.179688 -3.167969 2.179688 -3.960938 C 2.179688 -4.734375 2.449219 -5.398438 2.988281 -5.976562 C 3.527344 -6.550781 4.195312 -6.839844 4.96875 -6.839844 C 5.742188 -6.839844 6.40625 -6.550781 6.949219 -5.976562 C 7.488281 -5.398438 7.757812 -4.714844 7.757812 -3.960938 Z M 2.140625 1.078125 L 0.847656 1.078125 C 0.988281 1.925781 1.367188 2.664062 2.015625 3.292969 C 2.808594 4.105469 3.78125 4.5 4.914062 4.5 C 6.03125 4.5 7.003906 4.105469 7.8125 3.292969 C 8.605469 2.503906 9.019531 1.53125 9.019531 0.394531 L 9.019531 -7.921875 L 7.757812 -7.921875 L 7.757812 -6.589844 C 7.6875 -6.660156 7.613281 -6.75 7.542969 -6.839844 C 6.75 -7.667969 5.832031 -8.101562 4.789062 -8.101562 C 3.671875 -8.101562 2.753906 -7.667969 1.996094 -6.839844 C 1.277344 -6.011719 0.917969 -5.058594 0.917969 -3.960938 C 0.917969 -2.84375 1.277344 -1.890625 1.996094 -1.078125 C 2.753906 -0.234375 3.671875 0.179688 4.789062 0.179688 C 5.867188 0.179688 6.785156 -0.234375 7.542969 -1.078125 C 7.613281 -1.152344 7.6875 -1.242188 7.757812 -1.3125 L 7.757812 0.394531 C 7.757812 1.1875 7.46875 1.855469 6.910156 2.410156 C 6.355469 2.96875 5.6875 3.238281 4.914062 3.238281 C 4.121094 3.238281 3.457031 2.96875 2.898438 2.410156 C 2.503906 2.015625 2.25 1.585938 2.140625 1.078125 Z M 2.140625 1.078125 "/></g></g></g><g fill="#000000" fill-opacity="1"><g transform="translate(117.876559, 220.750006)"><g><path d="M 2.21875 -3 L 3.707031 -6.757812 L 5.183594 -3 Z M 7.285156 0 L 3.707031 -8.722656 L 0.121094 0 L 1.03125 0 L 1.90625 -2.21875 L 5.496094 -2.21875 L 6.371094 0 Z M 7.285156 0 "/></g></g></g><g fill="#000000" fill-opacity="1"><g transform="translate(125.280577, 220.750006)"><g><path d="M 5.101562 -2.640625 C 5.101562 -2.125 4.921875 -1.667969 4.558594 -1.296875 C 4.199219 -0.910156 3.757812 -0.71875 3.238281 -0.71875 C 2.710938 -0.71875 2.269531 -0.910156 1.90625 -1.296875 C 1.546875 -1.667969 1.378906 -2.125 1.378906 -2.640625 C 1.378906 -3.144531 1.546875 -3.601562 1.90625 -3.984375 C 2.269531 -4.367188 2.710938 -4.558594 3.238281 -4.558594 C 3.757812 -4.558594 4.199219 -4.367188 4.558594 -3.984375 C 4.921875 -3.601562 5.101562 -3.144531 5.101562 -2.640625 Z M 5.941406 0 L 5.941406 -9 L 5.101562 -9 L 5.101562 -4.367188 C 5.050781 -4.441406 4.992188 -4.5 4.945312 -4.558594 C 4.441406 -5.113281 3.828125 -5.398438 3.109375 -5.398438 C 2.375 -5.398438 1.765625 -5.113281 1.261719 -4.558594 C 0.78125 -4.007812 0.539062 -3.371094 0.539062 -2.640625 C 0.539062 -1.894531 0.78125 -1.261719 1.261719 -0.71875 C 1.765625 -0.15625 2.375 0.121094 3.109375 0.121094 C 3.828125 0.121094 4.441406 -0.15625 4.945312 -0.71875 C 4.992188 -0.769531 5.050781 -0.828125 5.101562 -0.898438 L 5.101562 0 Z M 5.941406 0 "/></g></g></g><g fill="#000000" fill-opacity="1"><g transform="translate(132.120596, 220.750006)"><g><path d="M 5.101562 -2.640625 C 5.101562 -2.125 4.921875 -1.667969 4.558594 -1.296875 C 4.199219 -0.910156 3.757812 -0.71875 3.238281 -0.71875 C 2.710938 -0.71875 2.269531 -0.910156 1.90625 -1.296875 C 1.546875 -1.667969 1.378906 -2.125 1.378906 -2.640625 C 1.378906 -3.144531 1.546875 -3.601562 1.90625 -3.984375 C 2.269531 -4.367188 2.710938 -4.558594 3.238281 -4.558594 C 3.757812 -4.558594 4.199219 -4.367188 4.558594 -3.984375 C 4.921875 -3.601562 5.101562 -3.144531 5.101562 -2.640625 Z M 5.941406 0 L 5.941406 -9 L 5.101562 -9 L 5.101562 -4.367188 C 5.050781 -4.441406 4.992188 -4.5 4.945312 -4.558594 C 4.441406 -5.113281 3.828125 -5.398438 3.109375 -5.398438 C 2.375 -5.398438 1.765625 -5.113281 1.261719 -4.558594 C 0.78125 -4.007812 0.539062 -3.371094 0.539062 -2.640625 C 0.539062 -1.894531 0.78125 -1.261719 1.261719 -0.71875 C 1.765625 -0.15625 2.375 0.121094 3.109375 0.121094 C 3.828125 0.121094 4.441406 -0.15625 4.945312 -0.71875 C 4.992188 -0.769531 5.050781 -0.828125 5.101562 -0.898438 L 5.101562 0 Z M 5.941406 0 "/></g></g></g><g fill="#000000" fill-opacity="1"><g transform="translate(138.960615, 220.750006)"><g/></g></g><g fill="#000000" fill-opacity="1"><g transform="translate(142.20062, 220.750006)"><g><path d="M 5.101562 -2.640625 C 5.101562 -2.125 4.921875 -1.667969 4.558594 -1.296875 C 4.199219 -0.910156 3.757812 -0.71875 3.238281 -0.71875 C 2.710938 -0.71875 2.269531 -0.910156 1.90625 -1.296875 C 1.546875 -1.667969 1.378906 -2.125 1.378906 -2.640625 C 1.378906 -3.144531 1.546875 -3.601562 1.90625 -3.984375 C 2.269531 -4.367188 2.710938 -4.558594 3.238281 -4.558594 C 3.757812 -4.558594 4.199219 -4.367188 4.558594 -3.984375 C 4.921875 -3.601562 5.101562 -3.144531 5.101562 -2.640625 Z M 5.941406 0 L 5.941406 -5.28125 L 5.101562 -5.28125 L 5.101562 -4.367188 C 5.050781 -4.441406 4.992188 -4.5 4.945312 -4.558594 C 4.441406 -5.113281 3.828125 -5.398438 3.109375 -5.398438 C 2.375 -5.398438 1.765625 -5.113281 1.261719 -4.558594 C 0.78125 -4.007812 0.539062 -3.371094 0.539062 -2.640625 C 0.539062 -1.894531 0.78125 -1.261719 1.261719 -0.71875 C 1.765625 -0.15625 2.375 0.121094 3.109375 0.121094 C 3.828125 0.121094 4.441406 -0.15625 4.945312 -0.71875 C 4.992188 -0.769531 5.050781 -0.828125 5.101562 -0.898438 L 5.101562 0 Z M 5.941406 0 "/></g></g></g><g fill="#000000" fill-opacity="1"><g transform="translate(149.040639, 220.750006)"><g/></g></g><g fill="#000000" fill-opacity="1"><g transform="translate(152.280644, 220.750006)"><g><path d="M 1.738281 0 L 1.738281 -9 L 0.898438 -9 L 0.898438 0 Z M 1.738281 0 "/></g></g></g><g fill="#000000" fill-opacity="1"><g transform="translate(154.920647, 220.750006)"><g><path d="M 1.753906 -7.105469 C 1.644531 -7.199219 1.511719 -7.261719 1.367188 -7.261719 C 1.222656 -7.261719 1.09375 -7.199219 0.996094 -7.105469 C 0.886719 -6.996094 0.839844 -6.863281 0.839844 -6.71875 C 0.839844 -6.574219 0.886719 -6.445312 0.996094 -6.347656 C 1.09375 -6.238281 1.222656 -6.191406 1.367188 -6.191406 C 1.511719 -6.191406 1.644531 -6.238281 1.753906 -6.347656 C 1.847656 -6.445312 1.90625 -6.574219 1.90625 -6.71875 C 1.90625 -6.863281 1.847656 -6.996094 1.753906 -7.105469 Z M 1.800781 0 L 1.800781 -5.28125 L 0.960938 -5.28125 L 0.960938 0 Z M 1.800781 0 "/></g></g></g><g fill="#000000" fill-opacity="1"><g transform="translate(157.668648, 220.750006)"><g><path d="M 0.238281 -4.5 L 1.558594 -4.5 L 1.558594 0 L 2.398438 0 L 2.398438 -4.5 L 3.707031 -4.5 L 3.707031 -5.28125 L 2.398438 -5.28125 L 2.398438 -7.332031 L 1.558594 -7.332031 L 1.558594 -5.28125 L 0.238281 -5.28125 Z M 0.238281 -4.5 "/></g></g></g><g fill="#000000" fill-opacity="1"><g transform="translate(161.616653, 220.750006)"><g><path d="M 0.238281 -4.5 L 1.558594 -4.5 L 1.558594 0 L 2.398438 0 L 2.398438 -4.5 L 3.707031 -4.5 L 3.707031 -5.28125 L 2.398438 -5.28125 L 2.398438 -7.332031 L 1.558594 -7.332031 L 1.558594 -5.28125 L 0.238281 -5.28125 Z M 0.238281 -4.5 "/></g></g></g><g fill="#000000" fill-opacity="1"><g transform="translate(165.564659, 220.750006)"><g><path d="M 1.738281 0 L 1.738281 -9 L 0.898438 -9 L 0.898438 0 Z M 1.738281 0 "/></g></g></g><g fill="#000000" fill-opacity="1"><g transform="translate(168.204662, 220.750006)"><g><path d="M 6.058594 -2.761719 C 6.058594 -3.480469 5.773438 -4.105469 5.21875 -4.644531 C 4.679688 -5.160156 4.03125 -5.425781 3.300781 -5.425781 C 2.53125 -5.425781 1.882812 -5.148438 1.34375 -4.609375 C 0.804688 -4.066406 0.539062 -3.421875 0.539062 -2.664062 C 0.539062 -1.894531 0.804688 -1.246094 1.34375 -0.71875 C 1.597656 -0.46875 1.882812 -0.277344 2.21875 -0.132812 C 2.554688 0.0117188 2.953125 0.0859375 3.421875 0.0859375 C 3.886719 0.0859375 4.34375 -0.0585938 4.800781 -0.347656 C 5.257812 -0.636719 5.59375 -1.042969 5.820312 -1.546875 L 4.859375 -1.546875 C 4.667969 -1.296875 4.441406 -1.105469 4.164062 -0.960938 C 3.886719 -0.816406 3.601562 -0.757812 3.300781 -0.757812 C 2.84375 -0.757812 2.4375 -0.898438 2.074219 -1.199219 C 1.714844 -1.488281 1.488281 -1.859375 1.414062 -2.316406 L 6.058594 -2.316406 Z M 5.171875 -3.035156 L 1.429688 -3.035156 C 1.476562 -3.253906 1.558594 -3.457031 1.679688 -3.648438 C 2.0625 -4.273438 2.605469 -4.585938 3.300781 -4.585938 C 3.742188 -4.585938 4.140625 -4.441406 4.488281 -4.152344 C 4.847656 -3.851562 5.0625 -3.480469 5.171875 -3.035156 Z M 5.171875 -3.035156 "/></g></g></g><g fill="#000000" fill-opacity="1"><g transform="translate(174.744674, 220.750006)"><g/></g></g><g fill="#000000" fill-opacity="1"><g transform="translate(177.984679, 220.750006)"><g><path d="M 1.738281 0 L 1.738281 -0.898438 C 1.777344 -0.828125 1.835938 -0.769531 1.882812 -0.71875 C 2.386719 -0.15625 3 0.121094 3.730469 0.121094 C 4.453125 0.121094 5.0625 -0.15625 5.566406 -0.71875 C 6.046875 -1.261719 6.300781 -1.894531 6.300781 -2.640625 C 6.300781 -3.371094 6.046875 -4.007812 5.566406 -4.558594 C 5.0625 -5.113281 4.453125 -5.398438 3.730469 -5.398438 C 3 -5.398438 2.386719 -5.113281 1.882812 -4.558594 C 1.835938 -4.5 1.777344 -4.441406 1.738281 -4.367188 L 1.738281 -9 L 0.898438 -9 L 0.898438 0 Z M 5.460938 -2.640625 C 5.460938 -2.125 5.28125 -1.667969 4.921875 -1.296875 C 4.558594 -0.910156 4.117188 -0.71875 3.601562 -0.71875 C 3.070312 -0.71875 2.628906 -0.910156 2.269531 -1.296875 C 1.90625 -1.667969 1.738281 -2.125 1.738281 -2.640625 C 1.738281 -3.144531 1.90625 -3.601562 2.269531 -3.984375 C 2.628906 -4.367188 3.070312 -4.558594 3.601562 -4.558594 C 4.117188 -4.558594 4.558594 -4.367188 4.921875 -3.984375 C 5.28125 -3.601562 5.460938 -3.144531 5.460938 -2.640625 Z M 5.460938 -2.640625 "/></g></g></g><g fill="#000000" fill-opacity="1"><g transform="translate(184.824698, 220.750006)"><g><path d="M 1.753906 -7.105469 C 1.644531 -7.199219 1.511719 -7.261719 1.367188 -7.261719 C 1.222656 -7.261719 1.09375 -7.199219 0.996094 -7.105469 C 0.886719 -6.996094 0.839844 -6.863281 0.839844 -6.71875 C 0.839844 -6.574219 0.886719 -6.445312 0.996094 -6.347656 C 1.09375 -6.238281 1.222656 -6.191406 1.367188 -6.191406 C 1.511719 -6.191406 1.644531 -6.238281 1.753906 -6.347656 C 1.847656 -6.445312 1.90625 -6.574219 1.90625 -6.71875 C 1.90625 -6.863281 1.847656 -6.996094 1.753906 -7.105469 Z M 1.800781 0 L 1.800781 -5.28125 L 0.960938 -5.28125 L 0.960938 0 Z M 1.800781 0 "/></g></g></g><g fill="#000000" fill-opacity="1"><g transform="translate(187.572699, 220.750006)"><g><path d="M 0.238281 -4.5 L 1.558594 -4.5 L 1.558594 0 L 2.398438 0 L 2.398438 -4.5 L 3.707031 -4.5 L 3.707031 -5.28125 L 2.398438 -5.28125 L 2.398438 -7.332031 L 1.558594 -7.332031 L 1.558594 -5.28125 L 0.238281 -5.28125 Z M 0.238281 -4.5 "/></g></g></g><g fill="#000000" fill-opacity="1"><g transform="translate(191.520704, 220.750006)"><g/></g></g><g fill="#000000" fill-opacity="1"><g transform="translate(194.760709, 220.750006)"><g><path d="M 5.21875 -2.664062 C 5.21875 -2.136719 5.027344 -1.691406 4.65625 -1.320312 C 4.273438 -0.9375 3.828125 -0.757812 3.300781 -0.757812 C 2.773438 -0.757812 2.316406 -0.9375 1.945312 -1.320312 C 1.558594 -1.691406 1.378906 -2.136719 1.378906 -2.664062 C 1.378906 -3.191406 1.558594 -3.636719 1.945312 -4.019531 C 2.316406 -4.390625 2.773438 -4.585938 3.300781 -4.585938 C 3.828125 -4.585938 4.273438 -4.390625 4.65625 -4.019531 C 5.027344 -3.636719 5.21875 -3.191406 5.21875 -2.664062 Z M 6.058594 -2.664062 C 6.058594 -3.421875 5.785156 -4.066406 5.242188 -4.609375 C 4.703125 -5.148438 4.054688 -5.425781 3.300781 -5.425781 C 2.53125 -5.425781 1.882812 -5.148438 1.34375 -4.609375 C 0.804688 -4.066406 0.539062 -3.421875 0.539062 -2.664062 C 0.539062 -1.894531 0.804688 -1.246094 1.34375 -0.71875 C 1.882812 -0.179688 2.542969 0.0859375 3.300781 0.0859375 C 4.042969 0.0859375 4.703125 -0.179688 5.242188 -0.71875 C 5.785156 -1.246094 6.058594 -1.894531 6.058594 -2.664062 Z M 6.058594 -2.664062 "/></g></g></g><g fill="#000000" fill-opacity="1"><g transform="translate(201.360723, 220.750006)"><g><path d="M 3.730469 -8.21875 L 3.730469 -9 L 3.132812 -9 C 2.53125 -9 2.113281 -8.84375 1.859375 -8.554688 C 1.609375 -8.269531 1.488281 -7.847656 1.488281 -7.320312 L 1.488281 -5.28125 L 0.421875 -5.28125 L 0.421875 -4.5 L 1.488281 -4.5 L 1.488281 0 L 2.328125 0 L 2.328125 -4.5 L 3.730469 -4.5 L 3.730469 -5.28125 L 2.328125 -5.28125 L 2.328125 -7.558594 C 2.328125 -7.738281 2.363281 -7.894531 2.460938 -8.027344 C 2.542969 -8.148438 2.722656 -8.21875 3.011719 -8.21875 Z M 3.730469 -8.21875 "/></g></g></g><g fill="#000000" fill-opacity="1"><g transform="translate(205.452729, 220.750006)"><g/></g></g><g fill="#000000" fill-opacity="1"><g transform="translate(208.692734, 220.750006)"><g><path d="M 1.738281 0 L 1.738281 -0.898438 C 1.777344 -0.828125 1.835938 -0.769531 1.882812 -0.71875 C 2.386719 -0.15625 3 0.121094 3.730469 0.121094 C 4.453125 0.121094 5.0625 -0.15625 5.566406 -0.71875 C 6.046875 -1.261719 6.300781 -1.894531 6.300781 -2.640625 C 6.300781 -3.371094 6.046875 -4.007812 5.566406 -4.558594 C 5.0625 -5.113281 4.453125 -5.398438 3.730469 -5.398438 C 3 -5.398438 2.386719 -5.113281 1.882812 -4.558594 C 1.835938 -4.5 1.777344 -4.441406 1.738281 -4.367188 L 1.738281 -9 L 0.898438 -9 L 0.898438 0 Z M 5.460938 -2.640625 C 5.460938 -2.125 5.28125 -1.667969 4.921875 -1.296875 C 4.558594 -0.910156 4.117188 -0.71875 3.601562 -0.71875 C 3.070312 -0.71875 2.628906 -0.910156 2.269531 -1.296875 C 1.90625 -1.667969 1.738281 -2.125 1.738281 -2.640625 C 1.738281 -3.144531 1.90625 -3.601562 2.269531 -3.984375 C 2.628906 -4.367188 3.070312 -4.558594 3.601562 -4.558594 C 4.117188 -4.558594 4.558594 -4.367188 4.921875 -3.984375 C 5.28125 -3.601562 5.460938 -3.144531 5.460938 -2.640625 Z M 5.460938 -2.640625 "/></g></g></g><g fill="#000000" fill-opacity="1"><g transform="translate(215.532753, 220.750006)"><g><path d="M 5.21875 -2.664062 C 5.21875 -2.136719 5.027344 -1.691406 4.65625 -1.320312 C 4.273438 -0.9375 3.828125 -0.757812 3.300781 -0.757812 C 2.773438 -0.757812 2.316406 -0.9375 1.945312 -1.320312 C 1.558594 -1.691406 1.378906 -2.136719 1.378906 -2.664062 C 1.378906 -3.191406 1.558594 -3.636719 1.945312 -4.019531 C 2.316406 -4.390625 2.773438 -4.585938 3.300781 -4.585938 C 3.828125 -4.585938 4.273438 -4.390625 4.65625 -4.019531 C 5.027344 -3.636719 5.21875 -3.191406 5.21875 -2.664062 Z M 6.058594 -2.664062 C 6.058594 -3.421875 5.785156 -4.066406 5.242188 -4.609375 C 4.703125 -5.148438 4.054688 -5.425781 3.300781 -5.425781 C 2.53125 -5.425781 1.882812 -5.148438 1.34375 -4.609375 C 0.804688 -4.066406 0.539062 -3.421875 0.539062 -2.664062 C 0.539062 -1.894531 0.804688 -1.246094 1.34375 -0.71875 C 1.882812 -0.179688 2.542969 0.0859375 3.300781 0.0859375 C 4.042969 0.0859375 4.703125 -0.179688 5.242188 -0.71875 C 5.785156 -1.246094 6.058594 -1.894531 6.058594 -2.664062 Z M 6.058594 -2.664062 "/></g></g></g><g fill="#000000" fill-opacity="1"><g transform="translate(222.132766, 220.750006)"><g><path d="M 5.101562 -2.640625 C 5.101562 -2.125 4.921875 -1.667969 4.558594 -1.296875 C 4.199219 -0.910156 3.757812 -0.71875 3.238281 -0.71875 C 2.710938 -0.71875 2.269531 -0.910156 1.90625 -1.296875 C 1.546875 -1.667969 1.378906 -2.125 1.378906 -2.640625 C 1.378906 -3.144531 1.546875 -3.601562 1.90625 -3.984375 C 2.269531 -4.367188 2.710938 -4.558594 3.238281 -4.558594 C 3.757812 -4.558594 4.199219 -4.367188 4.558594 -3.984375 C 4.921875 -3.601562 5.101562 -3.144531 5.101562 -2.640625 Z M 5.941406 0 L 5.941406 -9 L 5.101562 -9 L 5.101562 -4.367188 C 5.050781 -4.441406 4.992188 -4.5 4.945312 -4.558594 C 4.441406 -5.113281 3.828125 -5.398438 3.109375 -5.398438 C 2.375 -5.398438 1.765625 -5.113281 1.261719 -4.558594 C 0.78125 -4.007812 0.539062 -3.371094 0.539062 -2.640625 C 0.539062 -1.894531 0.78125 -1.261719 1.261719 -0.71875 C 1.765625 -0.15625 2.375 0.121094 3.109375 0.121094 C 3.828125 0.121094 4.441406 -0.15625 4.945312 -0.71875 C 4.992188 -0.769531 5.050781 -0.828125 5.101562 -0.898438 L 5.101562 0 Z M 5.941406 0 "/></g></g></g><g fill="#000000" fill-opacity="1"><g transform="translate(228.972785, 220.750006)"><g><path d="M 1.570312 3 L 5.21875 -5.28125 L 4.285156 -5.28125 L 2.773438 -1.738281 L 1.078125 -5.28125 L 0.121094 -5.28125 L 2.328125 -0.863281 L 0.550781 3 Z M 1.570312 3 "/></g></g></g><g fill="#000000" fill-opacity="1"><g transform="translate(234.072799, 220.750006)"><g/></g></g><g fill="#000000" fill-opacity="1"><g transform="translate(237.312804, 220.750006)"><g><path d="M 0.238281 -4.5 L 1.558594 -4.5 L 1.558594 0 L 2.398438 0 L 2.398438 -4.5 L 3.707031 -4.5 L 3.707031 -5.28125 L 2.398438 -5.28125 L 2.398438 -7.332031 L 1.558594 -7.332031 L 1.558594 -5.28125 L 0.238281 -5.28125 Z M 0.238281 -4.5 "/></g></g></g><g fill="#000000" fill-opacity="1"><g transform="translate(241.260809, 220.750006)"><g><path d="M 6.058594 -2.761719 C 6.058594 -3.480469 5.773438 -4.105469 5.21875 -4.644531 C 4.679688 -5.160156 4.03125 -5.425781 3.300781 -5.425781 C 2.53125 -5.425781 1.882812 -5.148438 1.34375 -4.609375 C 0.804688 -4.066406 0.539062 -3.421875 0.539062 -2.664062 C 0.539062 -1.894531 0.804688 -1.246094 1.34375 -0.71875 C 1.597656 -0.46875 1.882812 -0.277344 2.21875 -0.132812 C 2.554688 0.0117188 2.953125 0.0859375 3.421875 0.0859375 C 3.886719 0.0859375 4.34375 -0.0585938 4.800781 -0.347656 C 5.257812 -0.636719 5.59375 -1.042969 5.820312 -1.546875 L 4.859375 -1.546875 C 4.667969 -1.296875 4.441406 -1.105469 4.164062 -0.960938 C 3.886719 -0.816406 3.601562 -0.757812 3.300781 -0.757812 C 2.84375 -0.757812 2.4375 -0.898438 2.074219 -1.199219 C 1.714844 -1.488281 1.488281 -1.859375 1.414062 -2.316406 L 6.058594 -2.316406 Z M 5.171875 -3.035156 L 1.429688 -3.035156 C 1.476562 -3.253906 1.558594 -3.457031 1.679688 -3.648438 C 2.0625 -4.273438 2.605469 -4.585938 3.300781 -4.585938 C 3.742188 -4.585938 4.140625 -4.441406 4.488281 -4.152344 C 4.847656 -3.851562 5.0625 -3.480469 5.171875 -3.035156 Z M 5.171875 -3.035156 "/></g></g></g><g fill="#000000" fill-opacity="1"><g transform="translate(247.800821, 220.750006)"><g><path d="M 4.007812 0 L 5.074219 0 L 3.226562 -2.640625 L 5.074219 -5.28125 L 4.007812 -5.28125 L 2.6875 -3.253906 L 1.367188 -5.28125 L 0.300781 -5.28125 L 2.148438 -2.652344 L 0.300781 0 L 1.367188 0 L 2.6875 -2.050781 Z M 4.007812 0 "/></g></g></g><g fill="#000000" fill-opacity="1"><g transform="translate(253.176832, 220.750006)"><g><path d="M 0.238281 -4.5 L 1.558594 -4.5 L 1.558594 0 L 2.398438 0 L 2.398438 -4.5 L 3.707031 -4.5 L 3.707031 -5.28125 L 2.398438 -5.28125 L 2.398438 -7.332031 L 1.558594 -7.332031 L 1.558594 -5.28125 L 0.238281 -5.28125 Z M 0.238281 -4.5 "/></g></g></g><g fill="#000000" fill-opacity="1"><g transform="translate(65.048438, 178.499871)"><g><path d="M 15.328125 -26.40625 L 25.984375 0 L 19.515625 0 L 17.5625 -5.28125 L 7.515625 -5.28125 L 5.5625 0 L -0.890625 0 L 9.765625 -26.40625 Z M 15.515625 -10.5625 L 12.578125 -18.234375 L 12.515625 -18.234375 L 9.5625 -10.5625 Z M 15.515625 -10.5625 "/></g></g></g><g fill="#000000" fill-opacity="1"><g transform="translate(90.130269, 178.499871)"><g><path d="M 3.03125 -2.03125 C 1.5 -3.707031 0.734375 -5.757812 0.734375 -8.1875 C 0.734375 -10.625 1.5 -12.679688 3.03125 -14.359375 C 4.570312 -16.046875 6.523438 -16.890625 8.890625 -16.890625 C 11.066406 -16.890625 12.859375 -16.207031 14.265625 -14.84375 L 14.265625 -27.515625 L 19.9375 -27.515625 L 19.9375 0 L 14.34375 0 L 14.34375 -1.859375 L 14.265625 -1.859375 C 12.859375 -0.296875 11.066406 0.484375 8.890625 0.484375 C 6.523438 0.484375 4.570312 -0.351562 3.03125 -2.03125 Z M 7.84375 -10.96875 C 7.113281 -10.25 6.75 -9.320312 6.75 -8.1875 C 6.75 -7.0625 7.097656 -6.140625 7.796875 -5.421875 C 8.503906 -4.710938 9.4375 -4.359375 10.59375 -4.359375 C 11.695312 -4.359375 12.609375 -4.71875 13.328125 -5.4375 C 14.046875 -6.164062 14.40625 -7.082031 14.40625 -8.1875 C 14.40625 -9.320312 14.035156 -10.25 13.296875 -10.96875 C 12.554688 -11.695312 11.65625 -12.0625 10.59375 -12.0625 C 9.5 -12.0625 8.582031 -11.695312 7.84375 -10.96875 Z M 7.84375 -10.96875 "/></g></g></g><g fill="#000000" fill-opacity="1"><g transform="translate(111.980896, 178.499871)"><g><path d="M 3.03125 -2.03125 C 1.5 -3.707031 0.734375 -5.757812 0.734375 -8.1875 C 0.734375 -10.625 1.5 -12.679688 3.03125 -14.359375 C 4.570312 -16.046875 6.523438 -16.890625 8.890625 -16.890625 C 11.066406 -16.890625 12.859375 -16.207031 14.265625 -14.84375 L 14.265625 -27.515625 L 19.9375 -27.515625 L 19.9375 0 L 14.34375 0 L 14.34375 -1.859375 L 14.265625 -1.859375 C 12.859375 -0.296875 11.066406 0.484375 8.890625 0.484375 C 6.523438 0.484375 4.570312 -0.351562 3.03125 -2.03125 Z M 7.84375 -10.96875 C 7.113281 -10.25 6.75 -9.320312 6.75 -8.1875 C 6.75 -7.0625 7.097656 -6.140625 7.796875 -5.421875 C 8.503906 -4.710938 9.4375 -4.359375 10.59375 -4.359375 C 11.695312 -4.359375 12.609375 -4.71875 13.328125 -5.4375 C 14.046875 -6.164062 14.40625 -7.082031 14.40625 -8.1875 C 14.40625 -9.320312 14.035156 -10.25 13.296875 -10.96875 C 12.554688 -11.695312 11.65625 -12.0625 10.59375 -12.0625 C 9.5 -12.0625 8.582031 -11.695312 7.84375 -10.96875 Z M 7.84375 -10.96875 "/></g></g></g><g fill="#000000" fill-opacity="1"><g transform="translate(133.831523, 178.499871)"><g/></g></g><g fill="#000000" fill-opacity="1"><g transform="translate(142.565378, 178.499871)"><g><path d="M 3.03125 -2.03125 C 1.5 -3.707031 0.734375 -5.757812 0.734375 -8.1875 C 0.734375 -10.625 1.5 -12.679688 3.03125 -14.359375 C 4.570312 -16.046875 6.523438 -16.890625 8.890625 -16.890625 C 11.066406 -16.890625 12.859375 -16.207031 14.265625 -14.84375 L 14.265625 -16.421875 L 19.9375 -16.421875 L 19.9375 0 L 14.34375 0 L 14.34375 -1.859375 L 14.265625 -1.859375 C 12.859375 -0.296875 11.066406 0.484375 8.890625 0.484375 C 6.523438 0.484375 4.570312 -0.351562 3.03125 -2.03125 Z M 7.84375 -10.96875 C 7.113281 -10.25 6.75 -9.320312 6.75 -8.1875 C 6.75 -7.0625 7.097656 -6.140625 7.796875 -5.421875 C 8.503906 -4.710938 9.4375 -4.359375 10.59375 -4.359375 C 11.695312 -4.359375 12.609375 -4.71875 13.328125 -5.4375 C 14.046875 -6.164062 14.40625 -7.082031 14.40625 -8.1875 C 14.40625 -9.320312 14.035156 -10.25 13.296875 -10.96875 C 12.554688 -11.695312 11.65625 -12.0625 10.59375 -12.0625 C 9.5 -12.0625 8.582031 -11.695312 7.84375 -10.96875 Z M 7.84375 -10.96875 "/></g></g></g><g fill="#000000" fill-opacity="1"><g transform="translate(164.416005, 178.499871)"><g/></g></g><g fill="#000000" fill-opacity="1"><g transform="translate(173.149861, 178.499871)"><g><path d="M 1.921875 0 L 1.921875 -27.515625 L 7.578125 -27.515625 L 7.578125 -14.6875 L 7.640625 -14.6875 C 9.117188 -16.15625 10.691406 -16.890625 12.359375 -16.890625 C 13.160156 -16.890625 13.960938 -16.78125 14.765625 -16.5625 C 15.566406 -16.351562 16.332031 -16.023438 17.0625 -15.578125 C 17.800781 -15.128906 18.398438 -14.492188 18.859375 -13.671875 C 19.316406 -12.859375 19.546875 -11.90625 19.546875 -10.8125 L 19.546875 0 L 13.890625 0 L 13.890625 -9.28125 C 13.890625 -10.132812 13.613281 -10.878906 13.0625 -11.515625 C 12.519531 -12.160156 11.8125 -12.484375 10.9375 -12.484375 C 10.082031 -12.484375 9.304688 -12.148438 8.609375 -11.484375 C 7.921875 -10.828125 7.578125 -10.09375 7.578125 -9.28125 L 7.578125 0 Z M 1.921875 0 "/></g></g></g><g fill="#000000" fill-opacity="1"><g transform="translate(194.296664, 178.499871)"><g><path d="M 18.53125 -7.421875 L 6.625 -7.421875 C 6.625 -6.273438 6.992188 -5.421875 7.734375 -4.859375 C 8.484375 -4.304688 9.296875 -4.03125 10.171875 -4.03125 C 11.085938 -4.03125 11.8125 -4.148438 12.34375 -4.390625 C 12.882812 -4.640625 13.492188 -5.128906 14.171875 -5.859375 L 18.265625 -3.8125 C 16.566406 -0.945312 13.734375 0.484375 9.765625 0.484375 C 7.285156 0.484375 5.160156 -0.363281 3.390625 -2.0625 C 1.617188 -3.757812 0.734375 -5.800781 0.734375 -8.1875 C 0.734375 -10.582031 1.617188 -12.628906 3.390625 -14.328125 C 5.160156 -16.035156 7.285156 -16.890625 9.765625 -16.890625 C 12.359375 -16.890625 14.472656 -16.140625 16.109375 -14.640625 C 17.742188 -13.140625 18.5625 -10.988281 18.5625 -8.1875 C 18.5625 -7.800781 18.550781 -7.546875 18.53125 -7.421875 Z M 6.78125 -10.5625 L 13.03125 -10.5625 C 12.894531 -11.414062 12.554688 -12.070312 12.015625 -12.53125 C 11.472656 -12.988281 10.773438 -13.21875 9.921875 -13.21875 C 8.984375 -13.21875 8.234375 -12.972656 7.671875 -12.484375 C 7.117188 -11.992188 6.820312 -11.351562 6.78125 -10.5625 Z M 6.78125 -10.5625 "/></g></g></g><g fill="#000000" fill-opacity="1"><g transform="translate(213.587923, 178.499871)"><g><path d="M 3.03125 -2.03125 C 1.5 -3.707031 0.734375 -5.757812 0.734375 -8.1875 C 0.734375 -10.625 1.5 -12.679688 3.03125 -14.359375 C 4.570312 -16.046875 6.523438 -16.890625 8.890625 -16.890625 C 11.066406 -16.890625 12.859375 -16.207031 14.265625 -14.84375 L 14.265625 -16.421875 L 19.9375 -16.421875 L 19.9375 0 L 14.34375 0 L 14.34375 -1.859375 L 14.265625 -1.859375 C 12.859375 -0.296875 11.066406 0.484375 8.890625 0.484375 C 6.523438 0.484375 4.570312 -0.351562 3.03125 -2.03125 Z M 7.84375 -10.96875 C 7.113281 -10.25 6.75 -9.320312 6.75 -8.1875 C 6.75 -7.0625 7.097656 -6.140625 7.796875 -5.421875 C 8.503906 -4.710938 9.4375 -4.359375 10.59375 -4.359375 C 11.695312 -4.359375 12.609375 -4.71875 13.328125 -5.4375 C 14.046875 -6.164062 14.40625 -7.082031 14.40625 -8.1875 C 14.40625 -9.320312 14.035156 -10.25 13.296875 -10.96875 C 12.554688 -11.695312 11.65625 -12.0625 10.59375 -12.0625 C 9.5 -12.0625 8.582031 -11.695312 7.84375 -10.96875 Z M 7.84375 -10.96875 "/></g></g></g><g fill="#000000" fill-opacity="1"><g transform="translate(235.43855, 178.499871)"><g><path d="M 3.03125 -2.03125 C 1.5 -3.707031 0.734375 -5.757812 0.734375 -8.1875 C 0.734375 -10.625 1.5 -12.679688 3.03125 -14.359375 C 4.570312 -16.046875 6.523438 -16.890625 8.890625 -16.890625 C 11.066406 -16.890625 12.859375 -16.207031 14.265625 -14.84375 L 14.265625 -27.515625 L 19.9375 -27.515625 L 19.9375 0 L 14.34375 0 L 14.34375 -1.859375 L 14.265625 -1.859375 C 12.859375 -0.296875 11.066406 0.484375 8.890625 0.484375 C 6.523438 0.484375 4.570312 -0.351562 3.03125 -2.03125 Z M 7.84375 -10.96875 C 7.113281 -10.25 6.75 -9.320312 6.75 -8.1875 C 6.75 -7.0625 7.097656 -6.140625 7.796875 -5.421875 C 8.503906 -4.710938 9.4375 -4.359375 10.59375 -4.359375 C 11.695312 -4.359375 12.609375 -4.71875 13.328125 -5.4375 C 14.046875 -6.164062 14.40625 -7.082031 14.40625 -8.1875 C 14.40625 -9.320312 14.035156 -10.25 13.296875 -10.96875 C 12.554688 -11.695312 11.65625 -12.0625 10.59375 -12.0625 C 9.5 -12.0625 8.582031 -11.695312 7.84375 -10.96875 Z M 7.84375 -10.96875 "/></g></g></g><g fill="#000000" fill-opacity="1"><g transform="translate(257.289165, 178.499871)"><g><path d="M 2.453125 -25.5625 C 3.117188 -26.226562 3.910156 -26.5625 4.828125 -26.5625 C 5.742188 -26.5625 6.53125 -26.226562 7.1875 -25.5625 C 7.851562 -24.90625 8.1875 -24.117188 8.1875 -23.203125 C 8.1875 -22.285156 7.851562 -21.492188 7.1875 -20.828125 C 6.53125 -20.171875 5.742188 -19.84375 4.828125 -19.84375 C 3.910156 -19.84375 3.117188 -20.171875 2.453125 -20.828125 C 1.796875 -21.492188 1.46875 -22.285156 1.46875 -23.203125 C 1.46875 -24.117188 1.796875 -24.90625 2.453125 -25.5625 Z M 1.921875 -16.421875 L 1.921875 0 L 7.578125 0 L 7.578125 -16.421875 Z M 1.921875 -16.421875 "/></g></g></g><g fill="#000000" fill-opacity="1"><g transform="translate(266.950793, 178.499871)"><g><path d="M 1.921875 0 L 1.921875 -16.421875 L 7.578125 -16.421875 L 7.578125 -14.6875 L 7.640625 -14.6875 C 9.117188 -16.15625 10.691406 -16.890625 12.359375 -16.890625 C 13.160156 -16.890625 13.960938 -16.78125 14.765625 -16.5625 C 15.566406 -16.351562 16.332031 -16.023438 17.0625 -15.578125 C 17.800781 -15.128906 18.398438 -14.492188 18.859375 -13.671875 C 19.316406 -12.859375 19.546875 -11.90625 19.546875 -10.8125 L 19.546875 0 L 13.890625 0 L 13.890625 -9.28125 C 13.890625 -10.132812 13.613281 -10.878906 13.0625 -11.515625 C 12.519531 -12.160156 11.8125 -12.484375 10.9375 -12.484375 C 10.082031 -12.484375 9.304688 -12.148438 8.609375 -11.484375 C 7.921875 -10.828125 7.578125 -10.09375 7.578125 -9.28125 L 7.578125 0 Z M 1.921875 0 "/></g></g></g><g fill="#000000" fill-opacity="1"><g transform="translate(288.097596, 178.499871)"><g><path d="M 1.1875 4.03125 L 5.828125 1.765625 C 6.679688 3.171875 8.160156 3.875 10.265625 3.875 C 11.253906 3.875 12.164062 3.554688 13 2.921875 C 13.84375 2.296875 14.265625 1.332031 14.265625 0.03125 L 14.265625 -1.1875 C 13.265625 -0.0703125 11.472656 0.484375 8.890625 0.484375 C 6.523438 0.484375 4.570312 -0.351562 3.03125 -2.03125 C 1.5 -3.707031 0.734375 -5.757812 0.734375 -8.1875 C 0.734375 -10.625 1.5 -12.679688 3.03125 -14.359375 C 4.570312 -16.046875 6.523438 -16.890625 8.890625 -16.890625 C 11.003906 -16.890625 12.765625 -16.238281 14.171875 -14.9375 L 14.265625 -14.9375 L 14.265625 -16.421875 L 19.9375 -16.421875 L 19.9375 0.453125 C 19.9375 3.117188 19.050781 5.175781 17.28125 6.625 C 15.507812 8.070312 13.171875 8.796875 10.265625 8.796875 C 5.578125 8.796875 2.550781 7.207031 1.1875 4.03125 Z M 7.84375 -10.96875 C 7.113281 -10.25 6.75 -9.320312 6.75 -8.1875 C 6.75 -7.0625 7.097656 -6.140625 7.796875 -5.421875 C 8.503906 -4.710938 9.4375 -4.359375 10.59375 -4.359375 C 11.695312 -4.359375 12.609375 -4.71875 13.328125 -5.4375 C 14.046875 -6.164062 14.40625 -7.082031 14.40625 -8.1875 C 14.40625 -9.320312 14.035156 -10.25 13.296875 -10.96875 C 12.554688 -11.695312 11.65625 -12.0625 10.59375 -12.0625 C 9.5 -12.0625 8.582031 -11.695312 7.84375 -10.96875 Z M 7.84375 -10.96875 "/></g></g></g></svg>