<svg xmlns="http://www.w3.org/2000/svg" xmlns:xlink="http://www.w3.org/1999/xlink" width="500" zoomAndPan="magnify" viewBox="0 0 375 374.999991" height="500" preserveAspectRatio="xMidYMid meet" version="1.0"><defs><g/></defs><g fill="#000000" fill-opacity="1"><g transform="translate(123.227341, 196.12487)"><g><path d="M 15.96875 -5.4375 C 16.882812 -5.4375 17.773438 -5.570312 18.640625 -5.84375 C 19.503906 -6.125 20.140625 -6.394531 20.546875 -6.65625 L 21.15625 -7.078125 L 23.71875 -1.953125 C 23.625 -1.890625 23.503906 -1.800781 23.359375 -1.6875 C 23.210938 -1.582031 22.863281 -1.382812 22.3125 -1.09375 C 21.769531 -0.8125 21.1875 -0.5625 20.5625 -0.34375 C 19.945312 -0.132812 19.140625 0.0507812 18.140625 0.21875 C 17.140625 0.394531 16.109375 0.484375 15.046875 0.484375 C 12.585938 0.484375 10.257812 -0.117188 8.0625 -1.328125 C 5.863281 -2.535156 4.09375 -4.191406 2.75 -6.296875 C 1.40625 -8.410156 0.734375 -10.695312 0.734375 -13.15625 C 0.734375 -15.007812 1.128906 -16.789062 1.921875 -18.5 C 2.710938 -20.207031 3.765625 -21.664062 5.078125 -22.875 C 6.390625 -24.09375 7.914062 -25.0625 9.65625 -25.78125 C 11.40625 -26.507812 13.203125 -26.875 15.046875 -26.875 C 16.742188 -26.875 18.3125 -26.671875 19.75 -26.265625 C 21.195312 -25.859375 22.21875 -25.457031 22.8125 -25.0625 L 23.71875 -24.453125 L 21.15625 -19.328125 C 21 -19.453125 20.769531 -19.601562 20.46875 -19.78125 C 20.175781 -19.96875 19.582031 -20.207031 18.6875 -20.5 C 17.789062 -20.800781 16.882812 -20.953125 15.96875 -20.953125 C 14.519531 -20.953125 13.21875 -20.71875 12.0625 -20.25 C 10.914062 -19.78125 10.003906 -19.160156 9.328125 -18.390625 C 8.648438 -17.628906 8.132812 -16.804688 7.78125 -15.921875 C 7.4375 -15.035156 7.265625 -14.132812 7.265625 -13.21875 C 7.265625 -11.207031 8.015625 -9.40625 9.515625 -7.8125 C 11.023438 -6.226562 13.175781 -5.4375 15.96875 -5.4375 Z M 15.96875 -5.4375 "/></g></g></g><g fill="#000000" fill-opacity="1"><g transform="translate(147.317416, 196.12487)"><g><path d="M 3.46875 -1.953125 C 1.644531 -3.578125 0.734375 -5.65625 0.734375 -8.1875 C 0.734375 -10.726562 1.679688 -12.8125 3.578125 -14.4375 C 5.484375 -16.070312 7.832031 -16.890625 10.625 -16.890625 C 13.375 -16.890625 15.691406 -16.066406 17.578125 -14.421875 C 19.472656 -12.785156 20.421875 -10.707031 20.421875 -8.1875 C 20.421875 -5.675781 19.492188 -3.601562 17.640625 -1.96875 C 15.796875 -0.332031 13.457031 0.484375 10.625 0.484375 C 7.675781 0.484375 5.289062 -0.328125 3.46875 -1.953125 Z M 7.84375 -10.96875 C 7.113281 -10.25 6.75 -9.320312 6.75 -8.1875 C 6.75 -7.0625 7.097656 -6.140625 7.796875 -5.421875 C 8.503906 -4.710938 9.4375 -4.359375 10.59375 -4.359375 C 11.695312 -4.359375 12.609375 -4.71875 13.328125 -5.4375 C 14.046875 -6.164062 14.40625 -7.082031 14.40625 -8.1875 C 14.40625 -9.320312 14.035156 -10.25 13.296875 -10.96875 C 12.554688 -11.695312 11.65625 -12.0625 10.59375 -12.0625 C 9.5 -12.0625 8.582031 -11.695312 7.84375 -10.96875 Z M 7.84375 -10.96875 "/></g></g></g><g fill="#000000" fill-opacity="1"><g transform="translate(168.464219, 196.12487)"><g><path d="M 1.921875 0 L 1.921875 -27.515625 L 7.578125 -27.515625 L 7.578125 0 Z M 1.921875 0 "/></g></g></g><g fill="#000000" fill-opacity="1"><g transform="translate(177.965882, 196.12487)"><g><path d="M 3.46875 -1.953125 C 1.644531 -3.578125 0.734375 -5.65625 0.734375 -8.1875 C 0.734375 -10.726562 1.679688 -12.8125 3.578125 -14.4375 C 5.484375 -16.070312 7.832031 -16.890625 10.625 -16.890625 C 13.375 -16.890625 15.691406 -16.066406 17.578125 -14.421875 C 19.472656 -12.785156 20.421875 -10.707031 20.421875 -8.1875 C 20.421875 -5.675781 19.492188 -3.601562 17.640625 -1.96875 C 15.796875 -0.332031 13.457031 0.484375 10.625 0.484375 C 7.675781 0.484375 5.289062 -0.328125 3.46875 -1.953125 Z M 7.84375 -10.96875 C 7.113281 -10.25 6.75 -9.320312 6.75 -8.1875 C 6.75 -7.0625 7.097656 -6.140625 7.796875 -5.421875 C 8.503906 -4.710938 9.4375 -4.359375 10.59375 -4.359375 C 11.695312 -4.359375 12.609375 -4.71875 13.328125 -5.4375 C 14.046875 -6.164062 14.40625 -7.082031 14.40625 -8.1875 C 14.40625 -9.320312 14.035156 -10.25 13.296875 -10.96875 C 12.554688 -11.695312 11.65625 -12.0625 10.59375 -12.0625 C 9.5 -12.0625 8.582031 -11.695312 7.84375 -10.96875 Z M 7.84375 -10.96875 "/></g></g></g><g fill="#000000" fill-opacity="1"><g transform="translate(199.112685, 196.12487)"><g><path d="M 7.265625 -16.421875 L 7.265625 -8.609375 C 7.265625 -6.984375 7.507812 -5.828125 8 -5.140625 C 8.488281 -4.460938 9.316406 -4.125 10.484375 -4.125 C 11.660156 -4.125 12.492188 -4.460938 12.984375 -5.140625 C 13.484375 -5.828125 13.734375 -6.984375 13.734375 -8.609375 L 13.734375 -16.421875 L 19.390625 -16.421875 L 19.390625 -7.234375 C 19.390625 -4.503906 18.679688 -2.535156 17.265625 -1.328125 C 15.847656 -0.117188 13.59375 0.484375 10.5 0.484375 C 7.40625 0.484375 5.144531 -0.117188 3.71875 -1.328125 C 2.300781 -2.535156 1.59375 -4.503906 1.59375 -7.234375 L 1.59375 -16.421875 Z M 7.265625 -16.421875 "/></g></g></g><g fill="#000000" fill-opacity="1"><g transform="translate(220.099523, 196.12487)"><g><path d="M 1.921875 0 L 1.921875 -16.421875 L 7.578125 -16.421875 L 7.578125 -14.046875 L 7.640625 -14.046875 C 7.691406 -14.128906 7.765625 -14.234375 7.859375 -14.359375 C 7.953125 -14.492188 8.15625 -14.71875 8.46875 -15.03125 C 8.789062 -15.351562 9.132812 -15.640625 9.5 -15.890625 C 9.863281 -16.148438 10.332031 -16.378906 10.90625 -16.578125 C 11.488281 -16.785156 12.078125 -16.890625 12.671875 -16.890625 C 13.285156 -16.890625 13.890625 -16.804688 14.484375 -16.640625 C 15.085938 -16.472656 15.53125 -16.300781 15.8125 -16.125 L 16.25 -15.875 L 13.890625 -11.078125 C 13.179688 -11.671875 12.195312 -11.96875 10.9375 -11.96875 C 10.257812 -11.96875 9.675781 -11.816406 9.1875 -11.515625 C 8.695312 -11.222656 8.347656 -10.863281 8.140625 -10.4375 C 7.941406 -10.007812 7.796875 -9.644531 7.703125 -9.34375 C 7.617188 -9.039062 7.578125 -8.804688 7.578125 -8.640625 L 7.578125 0 Z M 1.921875 0 "/></g></g></g><g fill="#000000" fill-opacity="1"><g transform="translate(236.031609, 196.12487)"><g><path d="M 9.0625 -16.890625 C 10 -16.890625 10.925781 -16.78125 11.84375 -16.5625 C 12.757812 -16.351562 13.441406 -16.144531 13.890625 -15.9375 L 14.5625 -15.609375 L 12.703125 -11.90625 C 11.421875 -12.582031 10.207031 -12.921875 9.0625 -12.921875 C 8.414062 -12.921875 7.957031 -12.851562 7.6875 -12.71875 C 7.425781 -12.582031 7.296875 -12.320312 7.296875 -11.9375 C 7.296875 -11.851562 7.304688 -11.765625 7.328125 -11.671875 C 7.347656 -11.585938 7.390625 -11.507812 7.453125 -11.4375 C 7.515625 -11.363281 7.570312 -11.300781 7.625 -11.25 C 7.6875 -11.195312 7.78125 -11.132812 7.90625 -11.0625 C 8.03125 -11 8.128906 -10.953125 8.203125 -10.921875 C 8.273438 -10.890625 8.394531 -10.84375 8.5625 -10.78125 C 8.738281 -10.71875 8.867188 -10.671875 8.953125 -10.640625 C 9.046875 -10.609375 9.191406 -10.5625 9.390625 -10.5 C 9.597656 -10.4375 9.753906 -10.394531 9.859375 -10.375 C 10.515625 -10.175781 11.085938 -9.957031 11.578125 -9.71875 C 12.066406 -9.488281 12.582031 -9.171875 13.125 -8.765625 C 13.675781 -8.359375 14.097656 -7.84375 14.390625 -7.21875 C 14.691406 -6.601562 14.84375 -5.90625 14.84375 -5.125 C 14.84375 -1.382812 12.253906 0.484375 7.078125 0.484375 C 5.898438 0.484375 4.78125 0.300781 3.71875 -0.0625 C 2.664062 -0.425781 1.90625 -0.789062 1.4375 -1.15625 L 0.734375 -1.734375 L 3.046875 -5.59375 C 3.210938 -5.445312 3.429688 -5.269531 3.703125 -5.0625 C 3.984375 -4.863281 4.484375 -4.585938 5.203125 -4.234375 C 5.929688 -3.890625 6.566406 -3.71875 7.109375 -3.71875 C 8.273438 -3.71875 8.859375 -4.109375 8.859375 -4.890625 C 8.859375 -5.253906 8.707031 -5.535156 8.40625 -5.734375 C 8.113281 -5.941406 7.609375 -6.171875 6.890625 -6.421875 C 6.179688 -6.679688 5.625 -6.921875 5.21875 -7.140625 C 4.195312 -7.671875 3.382812 -8.269531 2.78125 -8.9375 C 2.1875 -9.613281 1.890625 -10.503906 1.890625 -11.609375 C 1.890625 -13.273438 2.535156 -14.570312 3.828125 -15.5 C 5.117188 -16.425781 6.863281 -16.890625 9.0625 -16.890625 Z M 9.0625 -16.890625 "/></g></g></g></svg>