<svg xmlns="http://www.w3.org/2000/svg" xmlns:xlink="http://www.w3.org/1999/xlink" width="500" zoomAndPan="magnify" viewBox="0 0 375 374.999991" height="500" preserveAspectRatio="xMidYMid meet" version="1.0"><defs><g/></defs><g fill="#49a84e" fill-opacity="1"><g transform="translate(23.332034, 196.874987)"><g><path d="M 30.21875 -17.3125 L 30.21875 -10.609375 C 29.414062 -6.929688 27.664062 -4.148438 24.96875 -2.265625 C 22.269531 -0.378906 19.257812 0.5625 15.9375 0.5625 C 11.757812 0.5625 8.203125 -1 5.265625 -4.125 C 2.328125 -7.25 0.859375 -11.019531 0.859375 -15.4375 C 0.859375 -19.9375 2.296875 -23.734375 5.171875 -26.828125 C 8.046875 -29.929688 11.632812 -31.484375 15.9375 -31.484375 C 20.957031 -31.484375 24.925781 -29.722656 27.84375 -26.203125 L 23.234375 -21.140625 C 21.585938 -23.785156 19.289062 -25.109375 16.34375 -25.109375 C 14.164062 -25.109375 12.304688 -24.164062 10.765625 -22.28125 C 9.234375 -20.394531 8.46875 -18.113281 8.46875 -15.4375 C 8.46875 -12.8125 9.234375 -10.566406 10.765625 -8.703125 C 12.304688 -6.847656 14.164062 -5.921875 16.34375 -5.921875 C 18.144531 -5.921875 19.710938 -6.460938 21.046875 -7.546875 C 22.378906 -8.640625 23.046875 -10.082031 23.046875 -11.875 L 15.9375 -11.875 L 15.9375 -17.3125 Z M 30.21875 -17.3125 "/></g></g></g><g fill="#49a84e" fill-opacity="1"><g transform="translate(54.400086, 196.874987)"><g><path d="M 3.5625 -2.375 C 1.757812 -4.34375 0.859375 -6.75 0.859375 -9.59375 C 0.859375 -12.445312 1.757812 -14.859375 3.5625 -16.828125 C 5.363281 -18.804688 7.648438 -19.796875 10.421875 -19.796875 C 12.972656 -19.796875 15.070312 -18.992188 16.71875 -17.390625 L 16.71875 -19.234375 L 23.359375 -19.234375 L 23.359375 0 L 16.796875 0 L 16.796875 -2.171875 L 16.71875 -2.171875 C 15.070312 -0.347656 12.972656 0.5625 10.421875 0.5625 C 7.648438 0.5625 5.363281 -0.414062 3.5625 -2.375 Z M 9.203125 -12.84375 C 8.335938 -12 7.90625 -10.914062 7.90625 -9.59375 C 7.90625 -8.269531 8.316406 -7.1875 9.140625 -6.34375 C 9.972656 -5.507812 11.0625 -5.09375 12.40625 -5.09375 C 13.707031 -5.09375 14.773438 -5.515625 15.609375 -6.359375 C 16.453125 -7.210938 16.875 -8.289062 16.875 -9.59375 C 16.875 -10.914062 16.441406 -12 15.578125 -12.84375 C 14.710938 -13.695312 13.65625 -14.125 12.40625 -14.125 C 11.132812 -14.125 10.066406 -13.695312 9.203125 -12.84375 Z M 9.203125 -12.84375 "/></g></g></g><g fill="#49a84e" fill-opacity="1"><g transform="translate(79.996558, 196.874987)"><g><path d="M 8.515625 -19.234375 L 8.515625 -10.078125 C 8.515625 -8.179688 8.800781 -6.832031 9.375 -6.03125 C 9.945312 -5.226562 10.921875 -4.828125 12.296875 -4.828125 C 13.671875 -4.828125 14.644531 -5.226562 15.21875 -6.03125 C 15.789062 -6.832031 16.078125 -8.179688 16.078125 -10.078125 L 16.078125 -19.234375 L 22.71875 -19.234375 L 22.71875 -8.46875 C 22.71875 -5.269531 21.882812 -2.960938 20.21875 -1.546875 C 18.5625 -0.140625 15.921875 0.5625 12.296875 0.5625 C 8.671875 0.5625 6.023438 -0.140625 4.359375 -1.546875 C 2.703125 -2.960938 1.875 -5.269531 1.875 -8.46875 L 1.875 -19.234375 Z M 8.515625 -19.234375 "/></g></g></g><g fill="#49a84e" fill-opacity="1"><g transform="translate(104.581167, 196.874987)"><g><path d="M 3.375 -19.234375 L 3.375 -26.390625 L 10.015625 -26.390625 L 10.015625 -19.234375 L 14.0625 -19.234375 L 14.0625 -14.171875 L 10.015625 -14.171875 L 10.015625 -8.0625 C 10.015625 -6.28125 10.507812 -5.390625 11.5 -5.390625 C 11.75 -5.390625 12.007812 -5.441406 12.28125 -5.546875 C 12.5625 -5.648438 12.78125 -5.75 12.9375 -5.84375 L 13.15625 -6 L 14.8125 -0.640625 C 13.382812 0.160156 11.757812 0.5625 9.9375 0.5625 C 8.6875 0.5625 7.609375 0.34375 6.703125 -0.09375 C 5.804688 -0.53125 5.125 -1.117188 4.65625 -1.859375 C 4.195312 -2.597656 3.867188 -3.367188 3.671875 -4.171875 C 3.472656 -4.984375 3.375 -5.851562 3.375 -6.78125 L 3.375 -14.171875 L 0.59375 -14.171875 L 0.59375 -19.234375 Z M 3.375 -19.234375 "/></g></g></g><g fill="#49a84e" fill-opacity="1"><g transform="translate(119.384396, 196.874987)"><g><path d="M 2.25 0 L 2.25 -32.234375 L 8.890625 -32.234375 L 8.890625 -17.203125 L 8.953125 -17.203125 C 10.679688 -18.929688 12.519531 -19.796875 14.46875 -19.796875 C 15.414062 -19.796875 16.359375 -19.671875 17.296875 -19.421875 C 18.234375 -19.171875 19.132812 -18.78125 20 -18.25 C 20.863281 -17.726562 21.5625 -16.984375 22.09375 -16.015625 C 22.632812 -15.054688 22.90625 -13.941406 22.90625 -12.671875 L 22.90625 0 L 16.265625 0 L 16.265625 -10.875 C 16.265625 -11.875 15.945312 -12.75 15.3125 -13.5 C 14.675781 -14.25 13.84375 -14.625 12.8125 -14.625 C 11.8125 -14.625 10.90625 -14.234375 10.09375 -13.453125 C 9.289062 -12.679688 8.890625 -11.820312 8.890625 -10.875 L 8.890625 0 Z M 2.25 0 "/></g></g></g><g fill="#49a84e" fill-opacity="1"><g transform="translate(144.15639, 196.874987)"><g><path d="M 2.875 -29.9375 C 3.65625 -30.71875 4.582031 -31.109375 5.65625 -31.109375 C 6.726562 -31.109375 7.648438 -30.71875 8.421875 -29.9375 C 9.203125 -29.164062 9.59375 -28.242188 9.59375 -27.171875 C 9.59375 -26.097656 9.203125 -25.171875 8.421875 -24.390625 C 7.648438 -23.617188 6.726562 -23.234375 5.65625 -23.234375 C 4.582031 -23.234375 3.65625 -23.617188 2.875 -24.390625 C 2.101562 -25.171875 1.71875 -26.097656 1.71875 -27.171875 C 1.71875 -28.242188 2.101562 -29.164062 2.875 -29.9375 Z M 2.25 -19.234375 L 2.25 0 L 8.890625 0 L 8.890625 -19.234375 Z M 2.25 -19.234375 "/></g></g></g><g fill="#49a84e" fill-opacity="1"><g transform="translate(155.474309, 196.874987)"><g><path d="M 21.703125 -8.703125 L 7.765625 -8.703125 C 7.765625 -7.347656 8.203125 -6.34375 9.078125 -5.6875 C 9.953125 -5.039062 10.898438 -4.71875 11.921875 -4.71875 C 12.992188 -4.71875 13.84375 -4.859375 14.46875 -5.140625 C 15.09375 -5.429688 15.804688 -6.003906 16.609375 -6.859375 L 21.40625 -4.453125 C 19.40625 -1.109375 16.082031 0.5625 11.4375 0.5625 C 8.53125 0.5625 6.039062 -0.425781 3.96875 -2.40625 C 1.894531 -4.394531 0.859375 -6.789062 0.859375 -9.59375 C 0.859375 -12.394531 1.894531 -14.796875 3.96875 -16.796875 C 6.039062 -18.796875 8.53125 -19.796875 11.4375 -19.796875 C 14.476562 -19.796875 16.953125 -18.910156 18.859375 -17.140625 C 20.773438 -15.378906 21.734375 -12.863281 21.734375 -9.59375 C 21.734375 -9.144531 21.722656 -8.847656 21.703125 -8.703125 Z M 7.953125 -12.375 L 15.25 -12.375 C 15.101562 -13.375 14.710938 -14.140625 14.078125 -14.671875 C 13.441406 -15.210938 12.625 -15.484375 11.625 -15.484375 C 10.519531 -15.484375 9.640625 -15.191406 8.984375 -14.609375 C 8.335938 -14.035156 7.992188 -13.289062 7.953125 -12.375 Z M 7.953125 -12.375 "/></g></g></g><g fill="#49a84e" fill-opacity="1"><g transform="translate(178.072658, 196.874987)"><g><path d="M 2.25 0 L 2.25 -19.234375 L 8.890625 -19.234375 L 8.890625 -16.453125 L 8.953125 -16.453125 C 9.003906 -16.554688 9.085938 -16.679688 9.203125 -16.828125 C 9.316406 -16.984375 9.5625 -17.25 9.9375 -17.625 C 10.3125 -18 10.707031 -18.332031 11.125 -18.625 C 11.550781 -18.925781 12.101562 -19.195312 12.78125 -19.4375 C 13.457031 -19.675781 14.144531 -19.796875 14.84375 -19.796875 C 15.570312 -19.796875 16.285156 -19.691406 16.984375 -19.484375 C 17.679688 -19.285156 18.191406 -19.085938 18.515625 -18.890625 L 19.046875 -18.59375 L 16.265625 -12.96875 C 15.441406 -13.664062 14.289062 -14.015625 12.8125 -14.015625 C 12.019531 -14.015625 11.332031 -13.835938 10.75 -13.484375 C 10.175781 -13.140625 9.769531 -12.71875 9.53125 -12.21875 C 9.300781 -11.71875 9.132812 -11.289062 9.03125 -10.9375 C 8.9375 -10.59375 8.890625 -10.320312 8.890625 -10.125 L 8.890625 0 Z M 2.25 0 "/></g></g></g><g fill="#49a84e" fill-opacity="1"><g transform="translate(196.73598, 196.874987)"><g/></g></g><g fill="#49a84e" fill-opacity="1"><g transform="translate(206.967077, 196.874987)"><g><path d="M 13.640625 -31.484375 C 15.316406 -31.484375 16.953125 -31.238281 18.546875 -30.75 C 20.148438 -30.269531 21.335938 -29.789062 22.109375 -29.3125 L 23.234375 -28.5625 L 20.390625 -22.9375 C 20.160156 -23.09375 19.847656 -23.285156 19.453125 -23.515625 C 19.054688 -23.753906 18.304688 -24.070312 17.203125 -24.46875 C 16.109375 -24.875 15.082031 -25.078125 14.125 -25.078125 C 12.957031 -25.078125 12.050781 -24.828125 11.40625 -24.328125 C 10.769531 -23.828125 10.453125 -23.148438 10.453125 -22.296875 C 10.453125 -21.878906 10.601562 -21.488281 10.90625 -21.125 C 11.207031 -20.757812 11.71875 -20.367188 12.4375 -19.953125 C 13.164062 -19.546875 13.804688 -19.21875 14.359375 -18.96875 C 14.910156 -18.71875 15.757812 -18.34375 16.90625 -17.84375 C 18.90625 -16.988281 20.609375 -15.832031 22.015625 -14.375 C 23.429688 -12.914062 24.140625 -11.257812 24.140625 -9.40625 C 24.140625 -7.632812 23.820312 -6.085938 23.1875 -4.765625 C 22.550781 -3.441406 21.675781 -2.40625 20.5625 -1.65625 C 19.445312 -0.90625 18.210938 -0.347656 16.859375 0.015625 C 15.515625 0.378906 14.054688 0.5625 12.484375 0.5625 C 11.128906 0.5625 9.800781 0.421875 8.5 0.140625 C 7.207031 -0.128906 6.125 -0.46875 5.25 -0.875 C 4.375 -1.289062 3.585938 -1.695312 2.890625 -2.09375 C 2.191406 -2.5 1.675781 -2.835938 1.34375 -3.109375 L 0.859375 -3.53125 L 4.390625 -9.453125 C 4.679688 -9.203125 5.085938 -8.878906 5.609375 -8.484375 C 6.140625 -8.097656 7.070312 -7.578125 8.40625 -6.921875 C 9.75 -6.273438 10.929688 -5.953125 11.953125 -5.953125 C 14.929688 -5.953125 16.421875 -6.96875 16.421875 -9 C 16.421875 -9.425781 16.3125 -9.816406 16.09375 -10.171875 C 15.882812 -10.535156 15.507812 -10.898438 14.96875 -11.265625 C 14.4375 -11.628906 13.960938 -11.914062 13.546875 -12.125 C 13.140625 -12.332031 12.46875 -12.65625 11.53125 -13.09375 C 10.59375 -13.53125 9.898438 -13.863281 9.453125 -14.09375 C 7.578125 -15.019531 6.125 -16.175781 5.09375 -17.5625 C 4.070312 -18.945312 3.5625 -20.441406 3.5625 -22.046875 C 3.5625 -24.816406 4.582031 -27.082031 6.625 -28.84375 C 8.675781 -30.601562 11.015625 -31.484375 13.640625 -31.484375 Z M 13.640625 -31.484375 "/></g></g></g><g fill="#49a84e" fill-opacity="1"><g transform="translate(232.15131, 196.874987)"><g><path d="M 3.375 -19.234375 L 3.375 -26.390625 L 10.015625 -26.390625 L 10.015625 -19.234375 L 14.0625 -19.234375 L 14.0625 -14.171875 L 10.015625 -14.171875 L 10.015625 -8.0625 C 10.015625 -6.28125 10.507812 -5.390625 11.5 -5.390625 C 11.75 -5.390625 12.007812 -5.441406 12.28125 -5.546875 C 12.5625 -5.648438 12.78125 -5.75 12.9375 -5.84375 L 13.15625 -6 L 14.8125 -0.640625 C 13.382812 0.160156 11.757812 0.5625 9.9375 0.5625 C 8.6875 0.5625 7.609375 0.34375 6.703125 -0.09375 C 5.804688 -0.53125 5.125 -1.117188 4.65625 -1.859375 C 4.195312 -2.597656 3.867188 -3.367188 3.671875 -4.171875 C 3.472656 -4.984375 3.375 -5.851562 3.375 -6.78125 L 3.375 -14.171875 L 0.59375 -14.171875 L 0.59375 -19.234375 Z M 3.375 -19.234375 "/></g></g></g><g fill="#49a84e" fill-opacity="1"><g transform="translate(246.954539, 196.874987)"><g><path d="M 8.515625 -19.234375 L 8.515625 -10.078125 C 8.515625 -8.179688 8.800781 -6.832031 9.375 -6.03125 C 9.945312 -5.226562 10.921875 -4.828125 12.296875 -4.828125 C 13.671875 -4.828125 14.644531 -5.226562 15.21875 -6.03125 C 15.789062 -6.832031 16.078125 -8.179688 16.078125 -10.078125 L 16.078125 -19.234375 L 22.71875 -19.234375 L 22.71875 -8.46875 C 22.71875 -5.269531 21.882812 -2.960938 20.21875 -1.546875 C 18.5625 -0.140625 15.921875 0.5625 12.296875 0.5625 C 8.671875 0.5625 6.023438 -0.140625 4.359375 -1.546875 C 2.703125 -2.960938 1.875 -5.269531 1.875 -8.46875 L 1.875 -19.234375 Z M 8.515625 -19.234375 "/></g></g></g><g fill="#49a84e" fill-opacity="1"><g transform="translate(271.539147, 196.874987)"><g><path d="M 3.5625 -2.375 C 1.757812 -4.34375 0.859375 -6.75 0.859375 -9.59375 C 0.859375 -12.445312 1.757812 -14.859375 3.5625 -16.828125 C 5.363281 -18.804688 7.648438 -19.796875 10.421875 -19.796875 C 12.972656 -19.796875 15.070312 -18.992188 16.71875 -17.390625 L 16.71875 -32.234375 L 23.359375 -32.234375 L 23.359375 0 L 16.796875 0 L 16.796875 -2.171875 L 16.71875 -2.171875 C 15.070312 -0.347656 12.972656 0.5625 10.421875 0.5625 C 7.648438 0.5625 5.363281 -0.414062 3.5625 -2.375 Z M 9.203125 -12.84375 C 8.335938 -12 7.90625 -10.914062 7.90625 -9.59375 C 7.90625 -8.269531 8.316406 -7.1875 9.140625 -6.34375 C 9.972656 -5.507812 11.0625 -5.09375 12.40625 -5.09375 C 13.707031 -5.09375 14.773438 -5.515625 15.609375 -6.359375 C 16.453125 -7.210938 16.875 -8.289062 16.875 -9.59375 C 16.875 -10.914062 16.441406 -12 15.578125 -12.84375 C 14.710938 -13.695312 13.65625 -14.125 12.40625 -14.125 C 11.132812 -14.125 10.066406 -13.695312 9.203125 -12.84375 Z M 9.203125 -12.84375 "/></g></g></g><g fill="#49a84e" fill-opacity="1"><g transform="translate(297.13562, 196.874987)"><g><path d="M 2.875 -29.9375 C 3.65625 -30.71875 4.582031 -31.109375 5.65625 -31.109375 C 6.726562 -31.109375 7.648438 -30.71875 8.421875 -29.9375 C 9.203125 -29.164062 9.59375 -28.242188 9.59375 -27.171875 C 9.59375 -26.097656 9.203125 -25.171875 8.421875 -24.390625 C 7.648438 -23.617188 6.726562 -23.234375 5.65625 -23.234375 C 4.582031 -23.234375 3.65625 -23.617188 2.875 -24.390625 C 2.101562 -25.171875 1.71875 -26.097656 1.71875 -27.171875 C 1.71875 -28.242188 2.101562 -29.164062 2.875 -29.9375 Z M 2.25 -19.234375 L 2.25 0 L 8.890625 0 L 8.890625 -19.234375 Z M 2.25 -19.234375 "/></g></g></g><g fill="#49a84e" fill-opacity="1"><g transform="translate(308.453551, 196.874987)"><g><path d="M 4.0625 -2.28125 C 1.925781 -4.1875 0.859375 -6.625 0.859375 -9.59375 C 0.859375 -12.570312 1.96875 -15.015625 4.1875 -16.921875 C 6.414062 -18.835938 9.164062 -19.796875 12.4375 -19.796875 C 15.664062 -19.796875 18.382812 -18.832031 20.59375 -16.90625 C 22.8125 -14.976562 23.921875 -12.539062 23.921875 -9.59375 C 23.921875 -6.644531 22.835938 -4.210938 20.671875 -2.296875 C 18.515625 -0.390625 15.769531 0.5625 12.4375 0.5625 C 8.988281 0.5625 6.195312 -0.382812 4.0625 -2.28125 Z M 9.203125 -12.84375 C 8.335938 -12 7.90625 -10.914062 7.90625 -9.59375 C 7.90625 -8.269531 8.316406 -7.1875 9.140625 -6.34375 C 9.972656 -5.507812 11.0625 -5.09375 12.40625 -5.09375 C 13.707031 -5.09375 14.773438 -5.515625 15.609375 -6.359375 C 16.453125 -7.210938 16.875 -8.289062 16.875 -9.59375 C 16.875 -10.914062 16.441406 -12 15.578125 -12.84375 C 14.710938 -13.695312 13.65625 -14.125 12.40625 -14.125 C 11.132812 -14.125 10.066406 -13.695312 9.203125 -12.84375 Z M 9.203125 -12.84375 "/></g></g></g><g fill="#49a84e" fill-opacity="1"><g transform="translate(333.225545, 196.874987)"><g><path d="M 10.609375 -19.796875 C 11.703125 -19.796875 12.785156 -19.671875 13.859375 -19.421875 C 14.941406 -19.171875 15.742188 -18.921875 16.265625 -18.671875 L 17.0625 -18.296875 L 14.875 -13.9375 C 13.375 -14.738281 11.953125 -15.140625 10.609375 -15.140625 C 9.859375 -15.140625 9.328125 -15.054688 9.015625 -14.890625 C 8.703125 -14.734375 8.546875 -14.429688 8.546875 -13.984375 C 8.546875 -13.878906 8.554688 -13.773438 8.578125 -13.671875 C 8.609375 -13.578125 8.660156 -13.484375 8.734375 -13.390625 C 8.804688 -13.304688 8.875 -13.234375 8.9375 -13.171875 C 9 -13.109375 9.101562 -13.039062 9.25 -12.96875 C 9.40625 -12.894531 9.523438 -12.835938 9.609375 -12.796875 C 9.703125 -12.765625 9.847656 -12.707031 10.046875 -12.625 C 10.242188 -12.550781 10.390625 -12.492188 10.484375 -12.453125 C 10.585938 -12.421875 10.757812 -12.367188 11 -12.296875 C 11.238281 -12.222656 11.421875 -12.171875 11.546875 -12.140625 C 12.316406 -11.921875 12.988281 -11.671875 13.5625 -11.390625 C 14.144531 -11.117188 14.753906 -10.742188 15.390625 -10.265625 C 16.023438 -9.796875 16.515625 -9.195312 16.859375 -8.46875 C 17.210938 -7.75 17.390625 -6.925781 17.390625 -6 C 17.390625 -1.625 14.351562 0.5625 8.28125 0.5625 C 6.90625 0.5625 5.597656 0.347656 4.359375 -0.078125 C 3.128906 -0.503906 2.238281 -0.925781 1.6875 -1.34375 L 0.859375 -2.03125 L 3.5625 -6.5625 C 3.757812 -6.382812 4.019531 -6.175781 4.34375 -5.9375 C 4.664062 -5.695312 5.253906 -5.367188 6.109375 -4.953125 C 6.960938 -4.546875 7.703125 -4.34375 8.328125 -4.34375 C 9.703125 -4.34375 10.390625 -4.804688 10.390625 -5.734375 C 10.390625 -6.160156 10.210938 -6.488281 9.859375 -6.71875 C 9.503906 -6.957031 8.910156 -7.226562 8.078125 -7.53125 C 7.242188 -7.832031 6.585938 -8.109375 6.109375 -8.359375 C 4.910156 -8.984375 3.960938 -9.6875 3.265625 -10.46875 C 2.566406 -11.257812 2.21875 -12.304688 2.21875 -13.609375 C 2.21875 -15.554688 2.972656 -17.070312 4.484375 -18.15625 C 5.992188 -19.25 8.035156 -19.796875 10.609375 -19.796875 Z M 10.609375 -19.796875 "/></g></g></g></svg>